<svg width="22" height="22" viewBox="0 0 22 22" fill="none" xmlns="http://www.w3.org/2000/svg">
<path d="M11.1486 7.44526C9.27831 7.44526 7.752 8.97159 7.752 10.8419C7.752 12.7123 9.27831 14.2386 11.1486 14.2386C13.0189 14.2386 14.5452 12.7123 14.5452 10.8419C14.5452 8.97159 13.0189 7.44526 11.1486 7.44526ZM21.3359 10.8419C21.3359 9.43535 21.3486 8.04152 21.2696 6.63749C21.1906 5.00668 20.8186 3.55934 19.6261 2.36681C18.4311 1.17173 16.9863 0.802252 15.3555 0.72326C13.949 0.644267 12.5552 0.657008 11.1512 0.657008C9.74461 0.657008 8.3508 0.644267 6.9468 0.72326C5.31602 0.802252 3.8687 1.17428 2.6762 2.36681C1.48114 3.56189 1.11167 5.00668 1.03268 6.63749C0.953685 8.04407 0.966426 9.4379 0.966426 10.8419C0.966426 12.246 0.953685 13.6423 1.03268 15.0464C1.11167 16.6772 1.48369 18.1245 2.6762 19.317C3.87125 20.5121 5.31602 20.8816 6.9468 20.9606C8.35335 21.0396 9.74715 21.0268 11.1512 21.0268C12.5577 21.0268 13.9515 21.0396 15.3555 20.9606C16.9863 20.8816 18.4336 20.5096 19.6261 19.317C20.8212 18.122 21.1906 16.6772 21.2696 15.0464C21.3512 13.6423 21.3359 12.2485 21.3359 10.8419ZM11.1486 16.0682C8.25652 16.0682 5.92247 13.7341 5.92247 10.8419C5.92247 7.94979 8.25652 5.61569 11.1486 5.61569C14.0407 5.61569 16.3747 7.94979 16.3747 10.8419C16.3747 13.7341 14.0407 16.0682 11.1486 16.0682ZM16.5888 6.62221C15.9135 6.62221 15.3682 6.0769 15.3682 5.40165C15.3682 4.72639 15.9135 4.18109 16.5888 4.18109C17.264 4.18109 17.8093 4.72639 17.8093 5.40165C17.8095 5.56199 17.7781 5.7208 17.7168 5.86897C17.6556 6.01715 17.5657 6.15178 17.4523 6.26516C17.3389 6.37854 17.2043 6.46844 17.0561 6.52971C16.9079 6.59097 16.7491 6.62241 16.5888 6.62221Z" fill="#1F2937"/>
</svg>
