<svg width="23" height="22" viewBox="0 0 23 22" fill="none" xmlns="http://www.w3.org/2000/svg">
<rect x="0.199951" width="22" height="22" rx="11" fill="#B8FD34"/>
<path d="M10.1928 10.1978L11.0895 9.37621C11.3347 9.15114 11.507 8.85792 11.5844 8.53421C11.6617 8.21049 11.6406 7.87104 11.5236 7.55943L11.1412 6.53832C10.9984 6.15711 10.7156 5.84471 10.3504 5.66477C9.98522 5.48482 9.56518 5.45086 9.17585 5.56982C7.74313 6.00815 6.64187 7.33985 6.98085 8.92118C7.20377 9.96149 7.63041 11.2673 8.43862 12.6566C9.24849 14.0493 10.1736 15.0779 10.9668 15.8009C12.164 16.8905 13.8756 16.6183 14.9769 15.5914C15.2719 15.316 15.4509 14.9386 15.4774 14.5359C15.5039 14.1332 15.376 13.7356 15.1196 13.4239L14.4183 12.5723C14.2068 12.3148 13.923 12.1264 13.6036 12.0315C13.2841 11.9365 12.9436 11.9394 12.6257 12.0396L11.4669 12.4045C11.1674 12.0958 10.9051 11.7531 10.6854 11.3834C10.4733 11.0095 10.3079 10.6111 10.1928 10.1969" fill="#1F2937"/>
</svg>
