<svg width="47" height="48" viewBox="0 0 47 48" fill="none" xmlns="http://www.w3.org/2000/svg">
<path d="M23.4444 0.77832C10.6805 0.77832 0.296265 11.1626 0.296265 23.9265V33.5167C0.296265 35.8871 2.37265 37.8154 4.92589 37.8154H7.24071C7.85464 37.8154 8.44342 37.5715 8.87753 37.1374C9.31164 36.7032 9.55552 36.1145 9.55552 35.5005V23.5954C9.55552 22.9815 9.31164 22.3927 8.87753 21.9586C8.44342 21.5245 7.85464 21.2806 7.24071 21.2806H5.13886C6.42589 12.3223 14.1342 5.40795 23.4444 5.40795C32.7546 5.40795 40.4629 12.3223 41.75 21.2806H39.6481C39.0342 21.2806 38.4454 21.5245 38.0113 21.9586C37.5772 22.3927 37.3333 22.9815 37.3333 23.5954V37.8154C37.3333 40.3686 35.2569 42.445 32.7037 42.445H28.074V40.1302H18.8148V47.0746H32.7037C37.8101 47.0746 41.9629 42.9218 41.9629 37.8154C44.5162 37.8154 46.5926 35.8871 46.5926 33.5167V23.9265C46.5926 11.1626 36.2083 0.77832 23.4444 0.77832Z" fill="#B8FD34"/>
</svg>
