<svg width="51" height="51" viewBox="0 0 51 51" fill="none" xmlns="http://www.w3.org/2000/svg">
<path d="M47.7268 17.826C49.2444 12.5788 48.8174 8.02603 46.0806 5.28923C40.2958 -0.495599 26.3675 4.05458 14.9676 15.4519C13.7748 16.6437 12.6359 17.8881 11.5543 19.1816M39.3338 32.6778C38.2758 33.9399 37.138 35.1822 35.9205 36.4049C24.5206 47.8022 10.5923 52.3524 4.8049 46.565C1.87262 43.6327 1.59482 38.6041 3.52396 32.8733" stroke="#B8FD34" stroke-width="3.85827" stroke-linecap="round" stroke-linejoin="round"/>
<path d="M27.1803 18.9832L22.679 24.3076C22.126 25.0227 21.8533 25.3776 22.0231 25.6528C22.1929 25.9281 22.6893 25.9281 23.6796 25.9281H27.2112C28.2015 25.9281 28.6979 25.9281 28.8677 26.2033C29.0374 26.4785 28.7648 26.8335 28.2118 27.5485L23.6796 32.8729M19.6567 40.6049C18.0169 39.2929 16.4515 37.8906 14.9676 36.4045C3.57028 25.0047 -0.979901 11.0763 4.8075 5.28891C7.73978 2.35663 12.7684 2.07883 18.4992 4.00797M31.2315 47.4341C37.4382 49.8005 42.9529 49.6976 46.0832 46.5672C51.8681 40.7798 47.3179 26.8515 35.9206 15.4516C34.4367 13.9655 32.8712 12.5633 31.2315 11.2512" stroke="#B8FD34" stroke-width="3.85827" stroke-linecap="round" stroke-linejoin="round"/>
</svg>
