<svg width="23" height="23" viewBox="0 0 23 23" fill="none" xmlns="http://www.w3.org/2000/svg">
<g clip-path="url(#clip0_55_856)">
<path d="M7.20863 20.9632C15.5369 20.9632 20.0928 14.0626 20.0928 8.08876C20.0928 7.89566 20.0928 7.69979 20.0845 7.50669C20.9715 6.8646 21.737 6.06966 22.3452 5.1591C21.5166 5.52441 20.6386 5.76518 19.7397 5.87359C20.6866 5.30757 21.3958 4.41699 21.7355 3.36738C20.8459 3.89445 19.8721 4.26445 18.8569 4.46117C18.1744 3.73431 17.2713 3.25278 16.2874 3.09118C15.3035 2.92958 14.2938 3.09693 13.4146 3.56729C12.5355 4.03766 11.8359 4.7848 11.4244 5.69298C11.0129 6.60116 10.9123 7.6197 11.1383 8.59083C9.33793 8.50055 7.57665 8.03285 5.96869 7.21806C4.36072 6.40327 2.94199 5.25958 1.80449 3.86117C1.22703 4.85853 1.0508 6.03828 1.31159 7.16085C1.57238 8.28342 2.25064 9.26466 3.20863 9.90531C2.49075 9.88092 1.78866 9.68815 1.15897 9.34255V9.40462C1.16021 10.4494 1.52216 11.4618 2.18363 12.2705C2.8451 13.0792 3.76552 13.6348 4.78932 13.8432C4.40072 13.9503 3.99929 14.0037 3.59621 14.0019C3.31205 14.0027 3.02846 13.9764 2.74932 13.9232C3.03868 14.8226 3.60211 15.609 4.36069 16.1722C5.11928 16.7354 6.03502 17.0472 6.97966 17.0639C5.37491 18.3243 3.39263 19.0079 1.35208 19.0046C0.992519 19.0061 0.633212 18.9854 0.276215 18.9426C2.34727 20.2629 4.75249 20.964 7.20863 20.9632Z" fill="#1F2937"/>
</g>
<defs>
<clipPath id="clip0_55_856">
<rect width="22.069" height="22.069" fill="white" transform="translate(0.276215 0.273438)"/>
</clipPath>
</defs>
</svg>
