<svg width="57" height="47" viewBox="0 0 57 47" fill="none" xmlns="http://www.w3.org/2000/svg">
<path d="M9.17514 46.4345C9.11567 46.3354 9.01654 45.9191 8.93725 45.5028C8.85795 45.0865 8.65971 44.69 8.52093 44.6305C8.36234 44.5711 7.17288 44.8486 5.90412 45.2253C4.61553 45.6217 3.54502 45.8993 3.50537 45.8596C3.46572 45.82 3.62431 45.0468 3.86221 44.1349C4.55606 41.5379 4.61553 41.7163 2.51415 40.3088L0.690308 39.0797L1.62205 38.822C2.15731 38.703 2.93046 38.4652 3.3666 38.3066C3.80273 38.148 4.69483 37.8902 5.34904 37.7316C6.43938 37.4343 6.55832 37.4343 6.77639 37.7515C6.91516 37.9299 7.05393 38.1678 7.09358 38.2867C7.13323 38.4255 7.88655 38.3859 9.33373 38.1678C16.4903 37.0774 21.8231 36.6611 28.4444 36.6611C35.0658 36.6611 40.3985 37.0774 47.5551 38.1678C49.0023 38.3859 49.7556 38.4255 49.7953 38.2867C49.8349 38.1678 49.9737 37.9299 50.1125 37.7515C50.3305 37.4343 50.4495 37.4343 51.5398 37.7316C52.194 37.8902 53.0861 38.148 53.5223 38.3066C53.9584 38.4652 54.7315 38.703 55.2668 38.822L56.1986 39.0797L54.3747 40.3088C52.2733 41.7163 52.3328 41.5379 53.0266 44.1349C53.2645 45.0468 53.4231 45.82 53.3835 45.8596C53.3438 45.8993 52.2733 45.6217 50.9847 45.2253C49.716 44.8486 48.5265 44.5711 48.3679 44.6504C48.2093 44.7098 48.0111 45.1261 47.9516 45.5623C47.8723 45.9984 47.7534 46.4147 47.6542 46.4742C47.5551 46.5138 46.9207 46.4742 46.2467 46.3751C39.665 45.3046 35.0459 44.9477 28.3453 44.9477C22.4575 44.9675 18.4133 45.2253 14.3691 45.8398C13.3383 45.9984 12.01 46.1768 11.4153 46.2561C10.8206 46.3156 10.1069 46.4345 9.80952 46.494C9.51215 46.5535 9.21479 46.5138 9.17514 46.4345ZM12.7832 43.679L12.8823 42.6877L13.2391 43.6195C13.596 44.5116 13.6356 44.5512 14.2304 44.4323C14.5872 44.3728 14.8846 44.2935 14.9242 44.2737C15.063 44.1547 15.3603 41.637 15.3603 40.5665C15.3603 39.4762 15.3405 39.4167 14.8846 39.4167C13.9528 39.4167 13.7744 39.5951 13.7744 40.5864V41.4983L13.3779 40.6657C13.0012 39.833 12.7435 39.6943 12.1091 39.9322C11.8713 40.0313 11.792 40.3485 11.792 41.2604C11.792 42.6283 11.6334 42.6084 11.1972 41.1414C10.8999 40.17 10.8404 40.1106 10.3051 40.17C9.96811 40.2097 9.6311 40.3088 9.5518 40.4079C9.45268 40.4872 9.76987 41.4983 10.2258 42.6679L11.0585 44.7891L11.8713 44.7297L12.6841 44.6702L12.7832 43.679ZM45.3744 43.7979C45.4339 43.3419 45.7908 42.6283 46.2467 42.0534C47 41.1216 47.4758 40.3485 47.4758 40.1106C47.4758 40.0511 47.0992 40.0115 46.6432 40.0511C45.989 40.0907 45.7511 40.2097 45.5925 40.5467C45.2753 41.2802 44.9581 41.2406 44.8194 40.4079C44.7202 39.7339 44.6211 39.6546 43.9867 39.5158C43.5902 39.4564 43.2136 39.4365 43.1541 39.5158C43.0352 39.6348 43.2929 40.6657 43.729 41.7758C43.9471 42.3111 43.9471 42.4697 43.7687 42.5291C43.4713 42.6283 43.4118 43.7781 43.6894 43.7781C43.7885 43.7781 43.9074 43.9565 43.9669 44.1746C44.0462 44.4521 44.2445 44.5711 44.6608 44.5711C45.196 44.5711 45.2555 44.4918 45.3744 43.7979ZM17.3626 43.5005C17.66 42.8463 18.5322 42.6877 18.9089 43.2032C19.1864 43.5997 19.8208 43.6988 20.2966 43.4014C20.5543 43.2428 20.4949 43.0049 19.9596 41.9146C19.6028 41.2009 19.1864 40.2493 19.008 39.8132C18.6908 39.0202 18.671 39.0004 17.7591 39.0599L16.8472 39.1194L16.411 41.1018C15.7965 43.8177 15.8163 43.9763 16.5498 43.9763C16.9859 43.9763 17.204 43.8574 17.3626 43.5005ZM41.2113 42.7472C41.4294 40.7648 41.5087 40.6062 42.1232 40.6062C42.5594 40.6062 42.6982 40.5071 42.7775 40.0709C42.9162 39.3771 42.6783 39.2185 41.4294 39.2185C40.8941 39.2185 40.1012 39.159 39.7047 39.0995C38.9712 38.9806 38.9513 38.9806 38.9513 39.5753C38.9513 40.0511 39.0505 40.1899 39.4073 40.2493C39.8236 40.3088 39.8434 40.3683 39.784 42.1525L39.7245 43.9763H40.3985H41.0726L41.2113 42.7472ZM38.3368 41.4785C38.4557 40.2097 38.535 39.1392 38.5152 39.1194C38.4756 39.0797 38.1782 39.0004 37.8214 38.9409C37.2068 38.8022 37.187 38.8022 37.0482 39.7339L36.9094 40.6855L36.5724 39.833C36.1958 38.8616 35.8191 38.5643 35.0261 38.6634C34.4909 38.7229 34.4909 38.7625 34.2926 40.6458C34.1935 41.6965 34.0349 42.6084 33.9754 42.6679C33.8763 42.7869 33.6186 42.0534 32.9446 39.5158L32.667 38.5246H31.7353C30.8035 38.5246 30.7837 38.5444 30.5062 39.3176C29.9313 40.9432 29.2374 43.0049 29.2374 43.0842C29.2374 43.1437 29.5942 43.1834 30.0304 43.1834C30.6846 43.1834 30.8234 43.1239 30.8234 42.7869C30.8234 42.212 31.874 42.2318 32.2507 42.8265C32.4886 43.1834 32.7661 43.2626 34.0547 43.3221L35.5812 43.4212L35.601 42.2516C35.601 41.1216 35.6209 41.1216 35.8786 41.6965C36.0173 42.0335 36.2552 42.5688 36.3742 42.9256C36.5526 43.4212 36.7508 43.5798 37.2266 43.6393C37.5835 43.679 37.9205 43.7384 37.98 43.7384C38.0394 43.7583 38.198 42.7472 38.3368 41.4785ZM22.2989 42.5886C22.2989 41.9344 22.3583 41.7956 22.6954 41.7956C22.9729 41.7956 23.0918 41.9344 23.0918 42.2516C23.0918 43.0248 23.409 43.2626 24.3606 43.2032C24.6778 43.1834 24.6976 43.0644 24.5985 42.2516C24.4399 40.9432 24.4399 40.7846 24.5787 40.2097C24.6778 39.8529 24.5787 39.5357 24.2813 39.159C23.865 38.6237 23.7857 38.6039 22.2196 38.6634L20.6138 38.7229L20.6733 40.2097C20.6931 41.0225 20.7724 42.0732 20.8319 42.549C20.931 43.3419 20.9706 43.3816 21.6248 43.3816C22.279 43.3816 22.2989 43.3618 22.2989 42.5886ZM26.462 42.3904C26.462 41.7362 26.5215 41.5974 26.8585 41.5974C27.136 41.5974 27.255 41.7362 27.255 42.0732C27.255 42.9455 27.4532 43.1834 28.1669 43.1834C28.8211 43.1834 28.8409 43.1635 28.8409 42.3706C28.8409 41.9344 28.7418 41.3992 28.6427 41.2009C28.5039 40.9432 28.5039 40.7846 28.6427 40.7053C28.9995 40.4872 28.8607 39.2383 28.4444 38.822C28.1074 38.485 27.7902 38.4255 26.462 38.4255H24.876V40.1899C24.876 41.1613 24.9355 42.2318 24.995 42.5688C25.1139 43.1041 25.1932 43.1834 25.788 43.1834C26.4422 43.1834 26.462 43.1635 26.462 42.3904Z" fill="#B8FD34"/>
<path d="M17.6798 41.1813C17.7591 40.8642 17.8384 40.8443 17.9574 41.0426C18.2151 41.4192 18.1754 41.5977 17.8583 41.5977C17.6798 41.5977 17.6204 41.4589 17.6798 41.1813Z" fill="#B8FD34"/>
<path d="M31.4181 40.9238C31.4181 40.7652 31.5172 40.5669 31.6163 40.5074C31.7353 40.448 31.8146 40.5669 31.8146 40.785C31.8146 41.0229 31.7353 41.2013 31.6163 41.2013C31.5172 41.2013 31.4181 41.0824 31.4181 40.9238Z" fill="#B8FD34"/>
<path d="M22.2989 40.1704C22.2989 39.9126 22.4178 39.8135 22.6359 39.8532C23.1117 39.9523 23.1712 40.3488 22.6954 40.4677C22.398 40.547 22.2989 40.4677 22.2989 40.1704Z" fill="#B8FD34"/>
<path d="M26.462 39.9121C26.462 39.694 26.6008 39.6147 26.918 39.6544C27.1559 39.694 27.3541 39.8129 27.3541 39.9121C27.3541 40.031 27.1559 40.1301 26.918 40.1698C26.6008 40.2094 26.462 40.1301 26.462 39.9121Z" fill="#B8FD34"/>
<path d="M11.1576 35.5113C10.4637 35.3329 10.1267 34.421 9.80953 31.9826C9.61128 30.3768 9.1355 29.2666 8.12446 28.0177C6.67728 26.2137 6.6178 25.7974 7.4306 22.8634C7.76762 21.6144 7.84691 20.9999 7.74779 19.9888C7.6685 19.2752 7.56937 18.0262 7.49008 17.1936L7.39095 15.6869L8.1641 14.9138C9.69058 13.3873 10.5034 12.1582 10.9792 10.6516C11.2567 9.83876 11.6135 8.82771 11.8118 8.39158C12.1488 7.61843 12.9814 6.70651 13.3779 6.70651C13.5563 6.70651 14.7061 6.23072 16.1137 5.55669C16.7084 5.27915 18.1952 3.87162 19.3847 2.44427L19.8803 1.84953L22.735 1.82971C25.451 1.80989 25.6294 1.79006 27.1559 1.17551C28.0281 0.818667 28.9599 0.422179 29.1978 0.303233C29.6141 0.104989 29.9511 0.223936 31.8939 1.21515C34.1539 2.38479 35.4424 2.72181 37.6033 2.74163C38.9712 2.74163 39.4866 3.07865 40.4778 4.5853C41.4889 6.1316 42.4404 7.22194 43.1343 7.57878C45.3546 8.78806 46.0287 9.18455 46.326 9.56122C46.6234 9.93788 46.8811 11.0282 47.1785 13.2089C47.3172 14.2794 47.793 15.2508 49.0618 16.9954C50.1521 18.4624 50.2512 18.958 49.7755 20.425C49.2204 22.2092 49.0023 23.5374 49.1411 24.5881C49.2204 25.163 49.3195 26.3326 49.3988 27.1851L49.5177 28.7116L48.6455 29.6631C46.9406 31.487 46.326 32.3989 45.9097 33.6478C45.6718 34.3417 45.4934 35.095 45.4934 35.3131C45.4934 35.5708 45.3943 35.6501 45.196 35.5906C45.0374 35.5113 44.0264 35.4122 42.9162 35.3329C41.8259 35.2536 40.9338 35.1545 40.9338 35.1148C40.9338 35.0752 41.2312 34.7183 41.6078 34.3417C44.3238 31.5464 46.2864 26.4714 46.2864 22.229C46.2864 16.5989 43.1145 10.5128 38.6738 7.57878C36.0372 5.83423 35.2838 5.49722 32.3102 4.80337C29.6537 4.16899 27.2352 4.16899 24.5787 4.80337C21.8826 5.43775 20.8715 5.85406 18.8693 7.16247C14.7061 9.89823 11.9109 14.0415 10.8999 19.0373C9.88882 24.1718 11.7523 30.694 15.2811 34.3417C15.6577 34.7183 15.9551 35.0752 15.9551 35.1148C15.9551 35.1545 15.063 35.2536 13.9726 35.3329C12.8625 35.4122 11.8713 35.4915 11.7325 35.5311C11.5937 35.5708 11.336 35.5708 11.1576 35.5113Z" fill="#B8FD34"/>
<path d="M19.92 30.8331C19.92 29.8023 19.7812 29.2472 19.127 27.7207C18.6909 26.7097 18.334 25.8374 18.334 25.7978C18.334 25.7581 18.453 25.7383 18.6116 25.7383C18.7702 25.7383 19.1072 26.3727 19.4442 27.3242C19.7614 28.1965 20.0786 28.9102 20.1381 28.9102C20.2768 28.9102 20.3561 28.6921 21.0103 26.8881C21.3275 25.9762 21.6249 25.5797 21.8231 25.7978C21.8826 25.8572 21.6645 26.4916 21.3275 27.1855C20.5742 28.8507 20.3165 29.7825 20.3165 30.9323C20.3165 31.4477 20.2372 31.9235 20.1182 31.983C19.9993 32.0623 19.92 31.6261 19.92 30.8331Z" fill="#B8FD34"/>
<path d="M29.733 31.8442C29.6934 31.7054 29.5546 31.2098 29.4357 30.7538C29.2176 29.9212 29.2176 29.9014 28.3453 29.9014C27.5127 29.9014 27.4731 29.9212 27.2748 30.6547C27.1559 31.0512 27.0568 31.5072 27.0568 31.6459C27.0568 31.7649 26.9378 31.8838 26.7792 31.8838C26.5611 31.8838 26.5413 31.7451 26.6801 31.2495C26.9576 30.2384 27.6118 27.3044 27.7704 26.4916C27.8696 25.8771 27.9687 25.7383 28.3453 25.7383C28.7418 25.7383 28.841 25.8969 29.0392 26.789C29.1581 27.3441 29.4952 28.7318 29.7529 29.8221C30.0106 30.9323 30.2287 31.8838 30.2287 31.9631C30.2287 32.1812 29.8123 32.0821 29.733 31.8442ZM29.2374 29.4653C29.2176 29.1877 28.4445 26.4718 28.3652 26.3925C28.2462 26.2537 28.1669 26.452 27.8696 27.7604C27.4929 29.3661 27.5325 29.5049 28.4445 29.5049C28.8806 29.5049 29.2374 29.4851 29.2374 29.4653Z" fill="#B8FD34"/>
<path d="M33.9358 31.9433C33.8565 31.8838 33.797 31.3089 33.797 30.6944C33.797 29.386 33.5789 29.1084 32.5679 29.1084H31.8146V30.4961C31.8146 31.6063 31.7551 31.8838 31.5172 31.8838C31.2595 31.8838 31.2198 31.4081 31.2198 28.8111V25.7383H32.3102C33.2221 25.7383 33.4997 25.8176 33.8961 26.2339C34.5107 26.8286 34.5305 27.6811 33.9754 28.3947C33.5988 28.8904 33.5789 28.9498 33.8763 29.1679C34.0944 29.3265 34.2332 29.8419 34.3323 30.7538C34.4314 31.983 34.3125 32.3398 33.9358 31.9433ZM33.7574 27.5621C33.8367 26.4718 33.5591 26.1348 32.5877 26.1348H31.8146V27.3441V28.5335L32.7661 28.474L33.6979 28.4146L33.7574 27.5621Z" fill="#B8FD34"/>
<path d="M36.057 31.7252C35.5416 31.3089 35.3037 30.4961 35.7001 30.4961C35.8389 30.4961 36.0173 30.7142 36.0966 30.9917C36.2156 31.5072 36.9094 31.8244 37.4645 31.6063C37.6231 31.5468 37.861 31.2693 37.9998 30.9917C38.1782 30.5754 38.1584 30.3574 37.9007 29.8023C37.7222 29.4256 37.4645 29.1084 37.3059 29.1084C37.1671 29.1084 36.731 28.8309 36.3147 28.4939C35.7398 28.0181 35.5812 27.7604 35.5812 27.2251C35.5812 26.3727 36.2156 25.7383 37.068 25.7383C37.7222 25.7383 38.5549 26.3528 38.5549 26.8286C38.5549 27.3044 38.0196 27.1656 37.8808 26.6502C37.7421 26.1149 37.2464 25.9167 36.6121 26.1546C36.2156 26.3132 36.1561 26.452 36.2156 27.1656C36.2751 27.8991 36.3742 28.0577 36.8896 28.3154C37.2266 28.4939 37.7619 28.8309 38.0791 29.0886C38.5747 29.4653 38.654 29.6833 38.6342 30.4168C38.6143 31.071 38.4954 31.3684 38.1385 31.6658C37.5438 32.1614 36.6121 32.1812 36.057 31.7252Z" fill="#B8FD34"/>
<path d="M22.8936 28.8111V25.7383H24.1822C24.9157 25.7383 25.4708 25.8176 25.4708 25.9365C25.4708 26.0555 24.9752 26.1348 24.3804 26.1348H23.2901V27.3242V28.5137H24.3804C24.9752 28.5137 25.4708 28.6128 25.4708 28.7119C25.4708 28.8309 24.9752 28.9102 24.3804 28.9102H23.2901V30.1988C23.2901 31.6261 23.2703 31.6063 24.9752 31.7451C25.4113 31.7847 25.1139 31.8244 24.3408 31.8442L22.8936 31.8838V28.8111Z" fill="#B8FD34"/>
<path d="M27.1955 22.7638C25.4113 22.3078 24.0633 21.1778 23.8452 19.9487L23.7461 19.3936H24.9554C26.1052 19.3936 26.1845 19.4333 26.7197 20.0875C27.2352 20.7417 27.3343 20.7813 28.4643 20.7813C29.5745 20.7813 29.6538 20.7417 30.0304 20.147C30.8234 18.8385 30.7837 17.2526 29.9313 16.3407C29.5348 15.9045 29.2771 15.8252 28.3652 15.8252C27.3938 15.8252 27.2154 15.9045 26.6999 16.4398C26.1647 17.0147 26.0457 17.0544 25.2527 16.9354C23.9047 16.7372 23.8849 16.6777 24.1822 15.3296C24.3408 14.6754 24.5589 13.2283 24.6778 12.0983C24.7968 10.9683 24.9554 9.91758 25.0149 9.75899C25.0942 9.54092 25.8078 9.48145 28.9797 9.48145H32.8455L32.7067 10.4132C32.6274 10.9484 32.5283 11.4242 32.4688 11.5234C32.4292 11.6027 31.2001 11.6621 29.7529 11.6621H27.1162L26.9775 12.4155C26.918 12.8119 26.8585 13.4265 26.8585 13.7833V14.4177L27.711 14.0411C28.8211 13.5256 29.7132 13.5454 30.9622 14.1203C32.2507 14.7349 32.9248 15.7063 33.1032 17.2328C33.3014 18.8385 32.9248 20.365 32.1318 21.2968C31.1208 22.4862 28.8211 23.1603 27.1955 22.7638Z" fill="#B8FD34"/>
</svg>
