<svg width="26" height="18" viewBox="0 0 26 18" fill="none" xmlns="http://www.w3.org/2000/svg">
<path d="M24.8806 3.36003C24.738 2.85106 24.46 2.39026 24.0764 2.02662C23.6819 1.6518 23.1984 1.38369 22.6716 1.24758C20.6998 0.727863 12.8002 0.727863 12.8002 0.727863C9.50688 0.690394 6.2144 0.855192 2.94133 1.22133C2.41446 1.36749 1.93189 1.6416 1.53652 2.01927C1.14805 2.39305 0.866668 2.85397 0.719678 3.35898C0.36658 5.26118 0.19502 7.19263 0.207313 9.12729C0.194714 11.0602 0.365852 12.991 0.719678 14.8956C0.863518 15.3985 1.14385 15.8573 1.53337 16.228C1.9229 16.5986 2.40796 16.8663 2.94133 17.0081C4.93934 17.5267 12.8002 17.5267 12.8002 17.5267C16.0976 17.5642 19.3943 17.3994 22.6716 17.0333C23.1984 16.8971 23.6819 16.629 24.0764 16.2542C24.4599 15.8906 24.7375 15.4298 24.8796 14.9208C25.2419 13.0193 25.4181 11.0871 25.4056 9.15144C25.4328 7.20761 25.2569 5.26625 24.8806 3.35898V3.36003ZM10.2887 12.7222V5.53338L16.8613 9.12834L10.2887 12.7222Z" fill="#1F2937"/>
</svg>
