<svg width="48" height="48" viewBox="0 0 48 48" fill="none" xmlns="http://www.w3.org/2000/svg">
<g clip-path="url(#clip0_129_155)">
<path d="M28.9606 4.81512C28.7284 3.81287 28.1496 2.92487 27.3263 2.30781C26.5031 1.69076 25.4884 1.38431 24.4612 1.44255C23.4341 1.50079 22.4605 1.91997 21.7123 2.62612C20.9641 3.33227 20.4894 4.28 20.3719 5.30208C20.2544 6.32416 20.5017 7.3549 21.0701 8.21239C21.6386 9.06989 22.4917 9.69904 23.4788 9.98882C24.466 10.2786 25.5238 10.2104 26.4655 9.79622C27.4073 9.38204 28.1725 8.64853 28.6261 7.72512C31.3875 8.35394 33.9546 9.64506 36.1058 11.4871C38.257 13.3292 39.9278 15.6669 40.9741 18.2986L43.6366 17.2516C42.4041 14.1301 40.4195 11.3615 37.8592 9.19182C35.2988 7.02217 32.242 5.51872 28.9606 4.81512ZM24.7276 7.27212C24.5327 7.27838 24.3385 7.2454 24.1566 7.17514C23.9747 7.10487 23.8088 6.99875 23.6687 6.8631C23.5286 6.72744 23.4172 6.56501 23.3412 6.38545C23.2651 6.20589 23.2259 6.01288 23.2259 5.81787C23.2259 5.62287 23.2651 5.42985 23.3412 5.2503C23.4172 5.07074 23.5286 4.90831 23.6687 4.77265C23.8088 4.63699 23.9747 4.53088 24.1566 4.46061C24.3385 4.39034 24.5327 4.35736 24.7276 4.36362C25.1135 4.36362 25.4836 4.51692 25.7565 4.78978C26.0293 5.06265 26.1826 5.43273 26.1826 5.81862C26.1826 6.20451 26.0293 6.5746 25.7565 6.84746C25.4836 7.12033 25.1135 7.27212 24.7276 7.27212ZM18.3271 8.48112L17.2516 5.82012C14.1301 7.0526 11.3615 9.03723 9.19182 11.5976C7.02217 14.1579 5.51872 17.2147 4.81512 20.4961C3.81287 20.7284 2.92487 21.3072 2.30781 22.1304C1.69076 22.9536 1.38431 23.9684 1.44255 24.9955C1.50079 26.0227 1.91997 26.9963 2.62612 27.7445C3.33227 28.4927 4.28 28.9674 5.30208 29.0849C6.32416 29.2024 7.3549 28.9551 8.21239 28.3866C9.06989 27.8181 9.69904 26.9651 9.98882 25.9779C10.2786 24.9907 10.2104 23.933 9.79622 22.9912C9.38204 22.0494 8.64853 21.2842 7.72512 20.8306C8.35653 18.0659 9.65185 15.4966 11.4991 13.3449C13.3463 11.1932 15.6899 9.52382 18.3271 8.48112ZM5.81712 26.1841C5.62605 26.1841 5.43685 26.1465 5.26032 26.0734C5.08379 26.0002 4.92339 25.8931 4.78828 25.758C4.65317 25.6229 4.546 25.4625 4.47288 25.2859C4.39976 25.1094 4.36212 24.9202 4.36212 24.7291C4.36212 24.538 4.39976 24.3488 4.47288 24.1723C4.546 23.9958 4.65317 23.8354 4.78828 23.7003C4.92339 23.5652 5.08379 23.458 5.26032 23.3849C5.43685 23.3118 5.62605 23.2741 5.81712 23.2741C6.20301 23.2741 6.5731 23.4274 6.84596 23.7003C7.11883 23.9731 7.27212 24.3432 7.27212 24.7291C7.27212 25.115 7.11883 25.4851 6.84596 25.758C6.5731 26.0308 6.20301 26.1841 5.81712 26.1841ZM24.7276 39.2746C23.9162 39.2773 23.1215 39.506 22.4328 39.9353C21.7442 40.3645 21.1888 40.9772 20.8291 41.7046C18.0673 41.0759 15.4999 39.7846 13.3484 37.9423C11.1969 36.0999 9.5259 33.7618 8.47962 31.1296L5.81862 32.2051C7.05512 35.3319 9.04639 38.104 11.6148 40.274C14.1832 42.444 17.2488 43.9445 20.5381 44.6416C20.7271 45.4424 21.1385 46.1735 21.725 46.7506C22.3115 47.3277 23.0491 47.7272 23.8529 47.9032C24.6566 48.0792 25.4938 48.0244 26.2677 47.7452C27.0417 47.466 27.721 46.9737 28.2273 46.3251C28.7336 45.6765 29.0462 44.8981 29.1292 44.0795C29.2122 43.2609 29.0621 42.4355 28.6963 41.6985C28.3305 40.9615 27.7638 40.3429 27.0616 39.9141C26.3594 39.4852 25.5503 39.2635 24.7276 39.2746ZM24.7276 45.0931C24.3417 45.0931 23.9716 44.9398 23.6988 44.667C23.4259 44.3941 23.2726 44.024 23.2726 43.6381C23.2726 43.2522 23.4259 42.8821 23.6988 42.6093C23.9716 42.3364 24.3417 42.1831 24.7276 42.1831C25.1135 42.1831 25.4836 42.3364 25.7565 42.6093C26.0293 42.8821 26.1826 43.2522 26.1826 43.6381C26.1826 44.024 26.0293 44.3941 25.7565 44.667C25.4836 44.9398 25.1135 45.0931 24.7276 45.0931ZM48.0001 24.7276C48.0028 23.9488 47.797 23.1835 47.4042 22.511C47.0113 21.8385 46.4457 21.2834 45.766 20.9032C45.0863 20.523 44.3172 20.3316 43.5386 20.3488C42.7599 20.366 42.0001 20.5913 41.3379 21.0012C40.6756 21.4111 40.1351 21.9907 39.7724 22.6799C39.4097 23.3691 39.238 24.1428 39.2751 24.9207C39.3122 25.6987 39.5568 26.4525 39.9835 27.1041C40.4101 27.7556 41.0034 28.2811 41.7016 28.6261C41.0727 31.3877 39.7813 33.9548 37.939 36.106C36.0966 38.2572 33.7586 39.928 31.1266 40.9741L32.2036 43.6366C35.3304 42.4001 38.1025 40.4089 40.2725 37.8405C42.4425 35.2721 43.943 32.2065 44.6401 28.9171C45.587 28.6932 46.4319 28.1593 47.0407 27.4003C47.6494 26.6412 47.9871 25.7005 48.0001 24.7276ZM43.6351 26.1826C43.2492 26.1826 42.8791 26.0293 42.6063 25.7565C42.3334 25.4836 42.1801 25.1135 42.1801 24.7276C42.1801 24.3417 42.3334 23.9716 42.6063 23.6988C42.8791 23.4259 43.2492 23.2726 43.6351 23.2726C44.021 23.2726 44.3911 23.4259 44.664 23.6988C44.9368 23.9716 45.0901 24.3417 45.0901 24.7276C45.0901 25.1135 44.9368 25.4836 44.664 25.7565C44.3911 26.0293 44.021 26.1826 43.6351 26.1826Z" fill="#1F2937"/>
<path d="M28.7853 24.5245C29.6129 23.7164 30.1809 22.6799 30.4167 21.5475C30.6525 20.4151 30.5454 19.2381 30.1091 18.1669C29.6728 17.0956 28.9272 16.1787 27.9673 15.5332C27.0075 14.8877 25.877 14.543 24.7203 14.543C23.5637 14.543 22.4332 14.8877 21.4734 15.5332C20.5135 16.1787 19.7679 17.0956 19.3316 18.1669C18.8953 19.2381 18.7882 20.4151 19.024 21.5475C19.2598 22.6799 19.8278 23.7164 20.6553 24.5245C19.6705 25.1902 18.8637 26.0871 18.3057 27.1367C17.7477 28.1864 17.4554 29.3567 17.4543 30.5455V33.454H31.9998V30.544C31.9973 29.354 31.7029 28.1828 31.1425 27.1331C30.5821 26.0834 29.7727 25.1887 28.7853 24.5245ZM21.8178 20.362C21.8178 19.9798 21.8931 19.6014 22.0394 19.2484C22.1856 18.8953 22.3999 18.5745 22.6702 18.3043C22.9404 18.0341 23.2612 17.8197 23.6142 17.6735C23.9673 17.5273 24.3457 17.452 24.7278 17.452C25.11 17.452 25.4884 17.5273 25.8415 17.6735C26.1945 17.8197 26.5153 18.0341 26.7855 18.3043C27.0557 18.5745 27.2701 18.8953 27.4163 19.2484C27.5626 19.6014 27.6378 19.9798 27.6378 20.362C27.6378 21.1338 27.3313 21.8739 26.7855 22.4197C26.2398 22.9654 25.4996 23.272 24.7278 23.272C23.9561 23.272 23.2159 22.9654 22.6702 22.4197C22.1244 21.8739 21.8178 21.1338 21.8178 20.362ZM20.3628 30.544C20.3521 29.9641 20.457 29.3878 20.6715 28.8489C20.886 28.31 21.2058 27.8192 21.6121 27.4053C22.0184 26.9914 22.5032 26.6626 23.038 26.4381C23.5729 26.2137 24.1471 26.0981 24.7271 26.0981C25.3071 26.0981 25.8813 26.2137 26.4162 26.4381C26.951 26.6626 27.4358 26.9914 27.8421 27.4053C28.2484 27.8192 28.5682 28.31 28.7827 28.8489C28.9972 29.3878 29.1021 29.9641 29.0913 30.544H20.3628Z" fill="#1F2937"/>
</g>
<defs>
<clipPath id="clip0_129_155">
<rect width="48" height="48" fill="white"/>
</clipPath>
</defs>
</svg>
