<svg width="48" height="48" viewBox="0 0 48 48" fill="none" xmlns="http://www.w3.org/2000/svg">
<path d="M17.25 9C15.8593 9.00553 14.5272 9.56043 13.5438 10.5438C12.5604 11.5272 12.0055 12.8593 12 14.25C12 17.133 14.367 19.5 17.25 19.5C20.133 19.5 22.5 17.133 22.5 14.25C22.5 11.367 20.133 9 17.25 9ZM30.75 9C29.3593 9.00553 28.0272 9.56043 27.0438 10.5438C26.0604 11.5272 25.5055 12.8593 25.5 14.25C25.5 17.133 27.867 19.5 30.75 19.5C33.633 19.5 36 17.133 36 14.25C36 11.367 33.633 9 30.75 9ZM17.25 12C18.51 12 19.5 12.99 19.5 14.25C19.5 15.51 18.51 16.5 17.25 16.5C15.99 16.5 15 15.51 15 14.25C15 12.99 15.99 12 17.25 12ZM30.75 12C32.01 12 33 12.99 33 14.25C33 15.51 32.01 16.5 30.75 16.5C29.49 16.5 28.5 15.51 28.5 14.25C28.5 12.99 29.49 12 30.75 12ZM10.5 18C7.2 18 4.5 20.7 4.5 24C4.5 25.6695 5.2155 27.1755 6.3285 28.266C5.30785 28.9554 4.47109 29.8837 3.89099 30.9701C3.31089 32.0566 3.00503 33.2684 3 34.5H6C6 31.998 7.998 30 10.5 30C13.002 30 15 31.998 15 34.5H18C17.995 33.2684 17.6891 32.0566 17.109 30.9701C16.5289 29.8837 15.6921 28.9554 14.6715 28.266C15.7845 27.1755 16.5 25.671 16.5 24C16.5 20.7 13.8 18 10.5 18ZM18 34.5C17.0625 35.754 16.5 37.3305 16.5 39H19.5C19.5 36.498 21.498 34.5 24 34.5C26.502 34.5 28.5 36.498 28.5 39H31.5C31.4978 37.3776 30.9717 35.7992 30 34.5C29.49 33.8205 28.875 33.24 28.1715 32.766C29.2845 31.6755 30 30.171 30 28.5C30 25.2 27.3 22.5 24 22.5C20.7 22.5 18 25.2 18 28.5C18 30.1695 18.7155 31.6755 19.8285 32.766C19.1256 33.2367 18.5073 33.823 18 34.5ZM30 34.5H33C33 31.998 34.998 30 37.5 30C40.002 30 42 31.998 42 34.5H45C44.995 33.2684 44.6891 32.0566 44.109 30.9701C43.5289 29.8837 42.6921 28.9554 41.6715 28.266C42.7845 27.1755 43.5 25.671 43.5 24C43.5 20.7 40.8 18 37.5 18C34.2 18 31.5 20.7 31.5 24C31.5 25.6695 32.2155 27.1755 33.3285 28.266C32.3079 28.9554 31.4711 29.8837 30.891 30.9701C30.3109 32.0566 30.005 33.2684 30 34.5ZM10.5 21C12.1755 21 13.5 22.3245 13.5 24C13.5 25.6755 12.1755 27 10.5 27C8.8245 27 7.5 25.6755 7.5 24C7.5 22.3245 8.8245 21 10.5 21ZM37.5 21C39.1755 21 40.5 22.3245 40.5 24C40.5 25.6755 39.1755 27 37.5 27C35.8245 27 34.5 25.6755 34.5 24C34.5 22.3245 35.8245 21 37.5 21ZM24 25.5C25.6755 25.5 27 26.8245 27 28.5C27 30.1755 25.6755 31.5 24 31.5C22.3245 31.5 21 30.1755 21 28.5C21 26.8245 22.3245 25.5 24 25.5Z" fill="#1F2937"/>
</svg>
