<svg width="48" height="48" viewBox="0 0 48 48" fill="none" xmlns="http://www.w3.org/2000/svg">
<g clip-path="url(#clip0_129_137)">
<path d="M40.9818 18.7928C40.9818 23.2993 39.1916 27.6213 36.005 30.8079C32.8183 33.9946 28.4964 35.7848 23.9898 35.7848C19.4832 35.7848 15.1613 33.9946 11.9746 30.8079C8.78803 27.6213 6.9978 23.2993 6.9978 18.7928C6.9978 14.2862 8.78803 9.96424 11.9746 6.77762C15.1613 3.591 19.4832 1.80078 23.9898 1.80078C28.4964 1.80078 32.8183 3.591 36.005 6.77762C39.1916 9.96424 40.9818 14.2862 40.9818 18.7928Z" stroke="#1F2937" stroke-width="3" stroke-linecap="round" stroke-linejoin="round"/>
<path d="M9.2708 27.1297L1.71423 40.22L9.87766 38.0326L12.0685 46.196L18.6239 34.8406M38.7291 27.1297L46.2857 40.22L38.1188 38.0326L35.9314 46.196L29.3759 34.8406M24.6857 9.56857L27.0274 14.2794C27.0782 14.3991 27.1605 14.5028 27.2656 14.5795C27.3706 14.6561 27.4945 14.7029 27.6239 14.7149L32.8251 15.5034C32.9739 15.5225 33.1143 15.5836 33.2296 15.6795C33.3449 15.7755 33.4305 15.9024 33.4762 16.0454C33.5219 16.1883 33.5259 16.3413 33.4877 16.4864C33.4495 16.6315 33.3707 16.7627 33.2605 16.8646L29.4171 20.5126C29.3595 20.6214 29.3293 20.7426 29.3293 20.8657C29.3293 20.9888 29.3595 21.1101 29.4171 21.2189L30.1542 26.3891C30.1862 26.539 30.1739 26.6949 30.1187 26.8378C30.0635 26.9807 29.9679 27.1045 29.8435 27.194C29.7191 27.2834 29.5714 27.3347 29.4183 27.3416C29.2653 27.3484 29.1135 27.3106 28.9817 27.2326L24.3531 24.7846C24.2335 24.7306 24.1037 24.7027 23.9725 24.7027C23.8413 24.7027 23.7116 24.7306 23.5919 24.7846L18.9634 27.2326C18.8316 27.3085 18.6807 27.3446 18.5289 27.3367C18.3771 27.3289 18.2307 27.2772 18.1076 27.1881C17.9844 27.099 17.8896 26.9762 17.8346 26.8344C17.7796 26.6926 17.7668 26.538 17.7977 26.3891L18.6685 21.2189C18.7063 21.099 18.7135 20.9717 18.6896 20.8483C18.6656 20.725 18.6113 20.6096 18.5314 20.5126L14.6948 16.8337C14.5917 16.7306 14.5192 16.6009 14.4854 16.4591C14.4516 16.3172 14.4577 16.1688 14.5032 16.0302C14.5487 15.8917 14.6317 15.7685 14.743 15.6743C14.8543 15.58 14.9895 15.5185 15.1337 15.4966L20.3314 14.7423C20.4609 14.7303 20.5847 14.6836 20.6897 14.6069C20.7948 14.5302 20.8771 14.4265 20.9279 14.3069L23.2697 9.596C23.332 9.46229 23.4306 9.34875 23.5542 9.26828C23.6779 9.1878 23.8216 9.14363 23.9691 9.14077C24.1166 9.13792 24.2619 9.17649 24.3886 9.25211C24.5153 9.32774 24.6182 9.43738 24.6857 9.56857Z" stroke="#1F2937" stroke-width="3" stroke-linecap="round" stroke-linejoin="round"/>
</g>
<defs>
<clipPath id="clip0_129_137">
<rect width="48" height="48" fill="white"/>
</clipPath>
</defs>
</svg>
