<svg width="48" height="48" viewBox="0 0 48 48" fill="none" xmlns="http://www.w3.org/2000/svg">
<path d="M14.848 5.66C15.0213 5.17399 15.3409 4.75354 15.7627 4.45633C16.1845 4.15912 16.6879 3.99972 17.204 4H30.11C30.506 3.99998 30.8965 4.09408 31.2491 4.27454C31.6016 4.455 31.9063 4.71665 32.138 5.03794C32.3696 5.35923 32.5216 5.73096 32.5814 6.12251C32.6412 6.51406 32.6071 6.91421 32.482 7.29L29.58 16H37.496C39.704 16 40.828 18.654 39.292 20.24L37.376 22.216C36.032 21.9667 34.6571 21.9309 33.302 22.11L36.316 19H27.496C27.2586 18.9995 27.0247 18.9427 26.8136 18.8342C26.6024 18.7257 26.42 18.5686 26.2814 18.3759C26.1428 18.1832 26.0519 17.9604 26.0162 17.7257C25.9805 17.491 26.0009 17.2512 26.076 17.026L29.416 7H17.556L11.032 25.314C11.0055 25.3891 10.9974 25.4694 11.0083 25.5483C11.0192 25.6272 11.0487 25.7023 11.0945 25.7675C11.1403 25.8326 11.201 25.8859 11.2715 25.9229C11.342 25.9598 11.4203 25.9794 11.5 25.98L16.504 26C16.7283 26.0009 16.9496 26.052 17.1516 26.1497C17.3536 26.2475 17.531 26.3893 17.6709 26.5647C17.8108 26.7401 17.9096 26.9446 17.96 27.1633C18.0103 27.3819 18.011 27.6091 17.962 27.828L15.016 40.984L22.064 33.71C21.9307 35.0706 22.0097 36.4436 22.298 37.78L17.17 43.072C15.062 45.248 11.426 43.284 12.088 40.328L14.628 28.992L11.488 28.98C10.9287 28.9776 10.3781 28.8411 9.88236 28.5821C9.38664 28.3231 8.96021 27.9491 8.6388 27.4913C8.31739 27.0336 8.11036 26.5055 8.03505 25.9513C7.95974 25.3971 8.01834 24.8329 8.20596 24.306L14.848 5.66ZM28.554 27.952C28.7032 28.4691 28.7466 29.011 28.6814 29.5452C28.6163 30.0794 28.444 30.595 28.175 31.0611C27.9059 31.5272 27.5455 31.9342 27.1154 32.2577C26.6853 32.5813 26.1944 32.8147 25.672 32.944L24.504 33.234C24.3158 34.4316 24.3198 35.6516 24.516 36.848L25.596 37.108C26.1231 37.235 26.619 37.4678 27.0533 37.7924C27.4877 38.1169 27.8516 38.5264 28.1228 38.9959C28.3941 39.4654 28.567 39.9852 28.6312 40.5236C28.6953 41.062 28.6493 41.6079 28.496 42.128L28.122 43.39C29.002 44.162 30.002 44.79 31.092 45.234L32.078 44.196C32.4516 43.803 32.9013 43.49 33.3996 43.2762C33.898 43.0623 34.4347 42.952 34.977 42.952C35.5193 42.952 36.0559 43.0623 36.5543 43.2762C37.0526 43.49 37.5023 43.803 37.876 44.196L38.874 45.248C39.9558 44.8068 40.9573 44.1899 41.838 43.422L41.442 42.05C41.2927 41.5328 41.2495 40.9908 41.3147 40.4564C41.38 39.9221 41.5524 39.4064 41.8217 38.9403C42.091 38.4742 42.4516 38.0672 42.8819 37.7438C43.3122 37.4203 43.8034 37.1871 44.326 37.058L45.492 36.768C45.6802 35.5704 45.6761 34.3504 45.48 33.154L44.4 32.894C43.873 32.7668 43.3774 32.5338 42.9432 32.2092C42.509 31.8845 42.1454 31.475 41.8743 31.0055C41.6033 30.536 41.4305 30.0163 41.3665 29.478C41.3025 28.9397 41.3486 28.394 41.502 27.874L41.874 26.612C40.9934 25.8374 39.9905 25.2142 38.906 24.768L37.92 25.804C37.5463 26.1973 37.0965 26.5106 36.5979 26.7246C36.0994 26.9386 35.5625 27.049 35.02 27.049C34.4774 27.049 33.9405 26.9386 33.442 26.7246C32.9434 26.5106 32.4936 26.1973 32.12 25.804L31.124 24.754C30.036 25.194 29.036 25.814 28.158 26.58L28.554 27.952ZM35 38C33.4 38 32.1 36.658 32.1 35C32.1 33.344 33.4 32 35 32C36.6 32 37.9 33.344 37.9 35C37.9 36.658 36.6 38 35 38Z" fill="#1F2937"/>
</svg>
