<svg width="48" height="48" viewBox="0 0 48 48" fill="none" xmlns="http://www.w3.org/2000/svg">
<path d="M21.7221 6.726C22.7361 4.908 23.2421 4 24.0001 4C24.7581 4 25.2641 4.908 26.2781 6.726L26.5381 7.196C26.8281 7.714 26.9721 7.972 27.1961 8.142C27.4201 8.312 27.7001 8.376 28.2601 8.502L28.7681 8.618C30.7361 9.062 31.7201 9.286 31.9541 10.038C32.1881 10.79 31.5181 11.576 30.1761 13.144L29.8281 13.55C29.4481 13.996 29.2581 14.218 29.1721 14.494C29.0861 14.77 29.1141 15.068 29.1721 15.662L29.2241 16.202C29.4281 18.296 29.5281 19.342 28.9161 19.808C28.3041 20.274 27.3821 19.848 25.5401 19L25.0621 18.78C24.5401 18.54 24.2781 18.42 24.0001 18.42C23.7221 18.42 23.4601 18.54 22.9381 18.78L22.4601 19C20.6201 19.85 19.6961 20.274 19.0841 19.808C18.4721 19.342 18.5721 18.296 18.7761 16.204L18.8281 15.662C18.8861 15.068 18.9141 14.77 18.8281 14.494C18.7421 14.218 18.5521 13.994 18.1721 13.55L17.8241 13.144C16.4841 11.576 15.8121 10.79 16.0461 10.038C16.2801 9.286 17.2641 9.062 19.2321 8.618L19.7401 8.502C20.3001 8.376 20.5801 8.312 20.8041 8.142C21.0281 7.972 21.1721 7.714 21.4601 7.196L21.7221 6.726ZM38.8601 15.364C39.3681 14.454 39.6201 14 40.0001 14C40.3801 14 40.6321 14.454 41.1401 15.364L41.2701 15.598C41.4141 15.858 41.4861 15.986 41.5981 16.072C41.7101 16.158 41.8501 16.188 42.1301 16.252L42.3841 16.308C43.3681 16.532 43.8601 16.642 43.9761 17.02C44.0921 17.398 43.7581 17.788 43.0881 18.572L42.9141 18.774C42.7241 18.998 42.6281 19.11 42.5861 19.248C42.5441 19.386 42.5581 19.534 42.5861 19.832L42.6121 20.102C42.7121 21.148 42.7641 21.672 42.4581 21.904C42.1521 22.136 41.6921 21.924 40.7701 21.5L40.5301 21.39C40.2701 21.27 40.1381 21.21 40.0001 21.21C39.8601 21.21 39.7301 21.27 39.4681 21.39L39.2301 21.5C38.3101 21.924 37.8501 22.136 37.5421 21.904C37.2361 21.672 37.2861 21.148 37.3881 20.102L37.4141 19.832C37.4421 19.532 37.4581 19.384 37.4141 19.248C37.3721 19.108 37.2761 18.998 37.0861 18.774L36.9121 18.572C36.2421 17.788 35.9061 17.396 36.0241 17.02C36.1421 16.644 36.6321 16.532 37.6161 16.308L37.8701 16.252C38.1501 16.188 38.2901 16.156 38.4021 16.072C38.5141 15.986 38.5861 15.856 38.7301 15.598L38.8601 15.364ZM6.8601 15.364C7.3701 14.454 7.62009 14 8.00009 14C8.38009 14 8.6321 14.454 9.1401 15.364L9.2701 15.598C9.4141 15.858 9.48609 15.986 9.59809 16.072C9.71009 16.158 9.8501 16.188 10.1301 16.252L10.3841 16.308C11.3681 16.532 11.8601 16.642 11.9781 17.02C12.0941 17.396 11.7581 17.788 11.0881 18.572L10.9141 18.774C10.7241 18.998 10.6281 19.11 10.5861 19.248C10.5441 19.386 10.5581 19.534 10.5861 19.832L10.6121 20.102C10.7121 21.148 10.7641 21.672 10.4581 21.904C10.1521 22.136 9.6901 21.924 8.7701 21.5L8.53009 21.39C8.27009 21.27 8.13809 21.21 8.00009 21.21C7.86009 21.21 7.7301 21.27 7.4681 21.39L7.2301 21.5C6.3101 21.924 5.85009 22.136 5.54209 21.904C5.23609 21.672 5.2861 21.148 5.3881 20.102L5.4141 19.832C5.4421 19.532 5.4581 19.384 5.4141 19.248C5.3721 19.108 5.2761 18.998 5.0861 18.774L4.9121 18.572C4.2421 17.788 3.90609 17.396 4.02209 17.02C4.14009 16.642 4.6321 16.532 5.6161 16.308L5.8701 16.252C6.1501 16.188 6.2901 16.156 6.4021 16.072C6.5141 15.986 6.5861 15.856 6.7301 15.598L6.8601 15.364Z" stroke="#1F2937" stroke-width="3"/>
<path d="M10 40.7764H14.52C16.54 40.7764 18.586 40.9884 20.552 41.3924C24.0622 42.1113 27.6734 42.1913 31.212 41.6284C32.948 41.3484 34.652 40.9184 36.196 40.1744C37.588 39.5004 39.294 38.5544 40.44 37.4924C41.584 36.4324 42.776 34.6984 43.62 33.3424C44.348 32.1784 43.996 30.7524 42.848 29.8864C42.2025 29.4181 41.4255 29.1658 40.628 29.1658C39.8305 29.1658 39.0535 29.4181 38.408 29.8864L34.794 32.6164C33.394 33.6764 31.864 34.6504 30.042 34.9404C29.822 34.9751 29.592 35.0064 29.352 35.0344M29.352 35.0344L29.132 35.0584M29.352 35.0344C29.6721 34.9477 29.9655 34.7827 30.206 34.5544C30.5079 34.294 30.7544 33.9757 30.931 33.6183C31.1076 33.2609 31.2107 32.8717 31.2342 32.4737C31.2577 32.0757 31.2011 31.6771 31.0678 31.3014C30.9345 30.9257 30.7271 30.5805 30.458 30.2864C30.1974 29.9971 29.8938 29.7495 29.558 29.5524C23.964 26.2144 15.258 28.7564 10 32.4864M29.352 35.0344C29.2798 35.0505 29.206 35.0586 29.132 35.0584M29.132 35.0584C27.9258 35.1793 26.7107 35.182 25.504 35.0664" stroke="#1F2937" stroke-width="3" stroke-linecap="round"/>
<path d="M10 31C10 29.3431 8.65685 28 7 28C5.34315 28 4 29.3431 4 31V41C4 42.6569 5.34315 44 7 44C8.65685 44 10 42.6569 10 41V31Z" stroke="#1F2937" stroke-width="3"/>
</svg>
