<svg width="48" height="31" viewBox="0 0 48 31" fill="none" xmlns="http://www.w3.org/2000/svg">
<path d="M19.5 15.7441L33 2.24414M33 2.24414H27M33 2.24414V8.24414M18 29.2441H25.5V21.7441H33V14.2441H40.5V6.74414H48" stroke="#1F2937" stroke-width="3" stroke-linecap="round" stroke-linejoin="round"/>
<path d="M8.62673 8.99414C8.62673 9.59088 8.38968 10.1632 7.96772 10.5851C7.54577 11.0071 6.97347 11.2441 6.37673 11.2441C5.78 11.2441 5.2077 11.0071 4.78574 10.5851C4.36379 10.1632 4.12673 9.59088 4.12673 8.99414C4.12673 8.3974 4.36379 7.82511 4.78574 7.40315C5.2077 6.98119 5.78 6.74414 6.37673 6.74414C6.97347 6.74414 7.54577 6.98119 7.96772 7.40315C8.38968 7.82511 8.62673 8.3974 8.62673 8.99414ZM4.03673 12.3721C4.14215 12.2534 4.2715 12.1584 4.41627 12.0932C4.56105 12.0281 4.71797 11.9943 4.87673 11.9941H7.04423C8.15723 11.9941 9.02423 12.9586 8.90873 14.0641L8.26373 20.1886C8.24215 20.3905 8.19787 20.5892 8.13173 20.7811L7.65473 22.1401L7.97423 22.5031C8.04246 22.5828 8.09995 22.671 8.14523 22.7656L11.1452 29.1406C11.2126 29.2749 11.2525 29.4212 11.2624 29.5711C11.2723 29.7209 11.2522 29.8713 11.2031 30.0132C11.154 30.1551 11.077 30.2858 10.9766 30.3975C10.8762 30.5092 10.7544 30.5997 10.6185 30.6636C10.4826 30.7275 10.3353 30.7635 10.1852 30.7696C10.0352 30.7756 9.88539 30.7516 9.74477 30.6988C9.60415 30.6461 9.47551 30.5657 9.36645 30.4625C9.25738 30.3592 9.17009 30.2352 9.10973 30.0976L6.17573 23.8666L3.65573 20.9851C3.46179 20.7648 3.36166 20.4773 3.37673 20.1841L3.58373 16.2646L2.93123 16.9981L2.23523 21.1771C2.1863 21.4715 2.02243 21.7344 1.77966 21.908C1.5369 22.0816 1.23512 22.1516 0.940734 22.1026C0.646343 22.0537 0.383449 21.8898 0.209884 21.6471C0.0363189 21.4043 -0.0336987 21.1025 0.0152338 20.8081L0.765233 16.3081C0.800398 16.0989 0.893999 15.9039 1.03523 15.7456L4.03523 12.3706L4.03673 12.3721Z" fill="#1F2937"/>
<path d="M3.75172 24.366V22.239L5.55772 24.3015L5.94922 25.0875C5.90854 25.2121 5.84774 25.3291 5.76922 25.434L2.01922 30.309C1.83741 30.5457 1.56902 30.7005 1.27309 30.7393C0.97716 30.7781 0.677927 30.6978 0.441221 30.516C0.204516 30.3342 0.0497267 30.0658 0.0109066 29.7699C-0.0279134 29.4739 0.052415 29.1747 0.234221 28.938L3.75172 24.366ZM10.0817 18.0435L9.34072 17.3025L9.64822 14.538L9.65722 14.4375L11.3432 16.1235H13.5032C13.8016 16.1235 14.0877 16.242 14.2987 16.453C14.5097 16.664 14.6282 16.9501 14.6282 17.2485C14.6282 17.5469 14.5097 17.833 14.2987 18.044C14.0877 18.255 13.8016 18.3735 13.5032 18.3735H10.8767C10.7288 18.3736 10.5823 18.3445 10.4456 18.2878C10.3089 18.2312 10.1848 18.1482 10.0802 18.0435H10.0817Z" fill="#1F2937"/>
</svg>
