<svg width="48" height="48" viewBox="0 0 48 48" fill="none" xmlns="http://www.w3.org/2000/svg">
<path d="M41.606 20.2407C41.6457 20.0989 41.6926 19.9607 41.7262 19.8165L41.743 19.73C42.0868 18.3441 42.0856 16.8952 41.7397 15.5099C41.3938 14.1246 40.7137 12.8452 39.7588 11.7836C38.8792 10.5996 37.7325 9.63989 36.4121 8.9825C35.0917 8.32511 33.6348 7.98859 32.1598 8.0003H32.0973C31.9771 8.0003 31.8425 8.00871 31.7151 8.01231H31.5697C29.0299 8.15414 26.5054 8.49734 24.0199 9.03866L18.6394 8.17937H18.5973C16.0346 7.73615 13.3973 8.15901 11.1016 9.38118C9.809 10.1617 8.69846 11.2099 7.84474 12.4554L7.79547 12.5215L7.76542 12.5636C6.63723 14.2372 6.02374 16.2045 6.00068 18.2227C5.97761 20.2409 6.54597 22.2217 7.63562 23.9207C7.61279 23.9615 7.59957 24.0072 7.57794 24.0493C7.47388 24.2577 7.38512 24.4734 7.31234 24.6947C7.27388 24.8148 7.24504 24.9422 7.21739 25.0672C7.19496 25.169 7.17573 25.2707 7.15971 25.3725C7.14408 25.4997 7.13526 25.6277 7.13327 25.7559C7.13327 25.8592 7.12125 25.9602 7.12606 26.0623C7.13407 26.1969 7.14929 26.3307 7.17173 26.4637C7.18615 26.5587 7.19336 26.6536 7.21499 26.7473C7.25185 26.8956 7.29832 27.0406 7.3544 27.1824C7.38204 27.2581 7.40007 27.3362 7.43372 27.4107C7.53227 27.6311 7.65245 27.8386 7.79426 28.0333C8.33816 28.8117 9.14042 29.3721 10.0585 29.6149C10.0244 30.1273 10.1098 30.6407 10.3079 31.1145C10.506 31.5884 10.8115 32.0097 11.2002 32.3454C11.889 32.9487 12.7336 33.346 13.6375 33.4919C13.8238 34.0964 14.1506 34.6481 14.5905 35.1023C15.1907 35.7528 16.0017 36.17 16.88 36.2801C17.0891 36.9928 17.4857 37.637 18.0289 38.1429C18.6983 38.8015 19.5948 39.1765 20.5335 39.1885C21.2236 39.1838 21.9012 39.0043 22.5032 38.6669C23.3974 39.1789 24.4454 39.3519 25.4573 39.1548C25.9885 39.0579 26.4919 38.8451 26.9316 38.5317C27.3713 38.2183 27.7366 37.8119 28.0015 37.3413C28.0268 37.3017 28.0412 37.2668 28.064 37.2271C29.0856 37.4363 30.1492 37.2524 31.0421 36.7128C31.8274 36.2694 32.4252 35.5563 32.7246 34.7057C33.7991 34.7202 34.8398 34.3332 35.6414 33.6181C36.0803 33.2339 36.4211 32.7505 36.6355 32.208C36.85 31.6656 36.9319 31.0798 36.8745 30.4994C36.8745 30.4658 36.8661 30.4393 36.8637 30.4069C37.4909 30.2189 38.0551 29.8637 38.4957 29.3793C39.0654 28.7786 39.4321 28.0143 39.5442 27.1941C39.6564 26.3739 39.5082 25.5392 39.1207 24.8076C40.2015 23.5595 41.0191 22.1059 41.5243 20.534C41.5531 20.4414 41.5772 20.3405 41.606 20.2407ZM39.5485 18.1977C39.4882 18.8019 39.3555 19.3966 39.1531 19.9691L39.1147 20.0893C38.7149 21.1583 38.1389 22.1528 37.4105 23.0313C33.6404 19.7408 28.1566 14.9384 27.7059 14.5081C27.1852 14.0099 26.4939 13.7296 25.7734 13.7245C25.5498 13.7219 25.3273 13.7539 25.1136 13.8195C24.3516 14.0598 22.4792 14.6607 20.8447 15.2676C20.2198 15.4996 19.5059 14.9071 19.2884 14.4023C19.1442 14.0995 19.1201 13.7534 19.2187 13.4337C19.4146 13.0791 19.7439 12.816 20.1333 12.703C23.8303 11.4035 27.6929 10.6347 31.6058 10.4195H31.7512C31.8846 10.4195 32.0168 10.4099 32.1394 10.4075C33.0369 10.3934 33.9279 10.5623 34.7581 10.9039C35.9897 11.4635 37.0706 12.308 37.9117 13.3676C38.6648 14.2174 39.1907 15.2439 39.4404 16.3517L39.4512 16.407C39.5101 16.7026 39.5466 17.0023 39.5605 17.3035C39.5641 17.4009 39.5702 17.5234 39.5702 17.6316C39.5702 17.8059 39.5702 17.9789 39.5497 18.1508L39.5485 18.1977ZM9.55732 26.2005C9.55011 26.1476 9.54731 26.0936 9.54891 26.0383C9.53591 25.9225 9.53591 25.8056 9.54891 25.6898C9.56321 25.6217 9.58045 25.5544 9.60059 25.4878C9.62542 25.3805 9.65988 25.2767 9.70394 25.1766C9.744 25.1045 9.78927 25.0356 9.83975 24.9699C9.91185 24.8513 9.99798 24.7451 10.0981 24.6514L10.1053 24.6454L12.366 22.7285C12.5161 22.6128 12.6877 22.5279 12.8707 22.4786C13.0538 22.4293 13.2447 22.4165 13.4327 22.4411C13.6207 22.4657 13.802 22.527 13.9662 22.6217C14.1304 22.7164 14.2744 22.8425 14.3898 22.9929C14.4745 23.1157 14.5294 23.2565 14.5502 23.4042C14.5711 23.5518 14.5573 23.7023 14.51 23.8438L10.9646 27.2978C10.7199 27.3019 10.4783 27.2427 10.2633 27.1258C10.0483 27.0089 9.86718 26.8384 9.73759 26.6308C9.64692 26.5022 9.5854 26.3553 9.55732 26.2005ZM12.5811 29.0789L16.4713 25.2883L16.4533 25.2703C16.6725 25.1624 16.9195 25.1238 17.1612 25.1598C17.47 25.2439 17.7489 25.4169 17.9616 25.6573C18.1731 25.8376 18.3149 26.0852 18.363 26.3592C18.3809 26.6368 18.32 26.9138 18.1875 27.1584L18.1563 27.2605L14.2252 31.0907C13.9493 31.1029 13.6741 31.0555 13.4182 30.9518C13.1623 30.8481 12.9317 30.6906 12.7421 30.4898C12.5864 30.293 12.4889 30.0566 12.4604 29.8073C12.4319 29.558 12.4737 29.3057 12.5811 29.0789ZM15.9281 32.7865L19.9902 28.8337C20.2486 28.8854 20.4854 29.0176 20.6657 29.2111C20.9148 29.4292 21.0882 29.7208 21.1608 30.0439C21.1792 30.1829 21.1731 30.3241 21.1428 30.4609L17.6299 33.8801C17.3955 33.9234 17.154 33.9064 16.928 33.8307C16.702 33.755 16.499 33.6231 16.3379 33.4474C16.1501 33.2633 16.0096 33.0365 15.9281 32.7865ZM19.6982 36.4063C19.4803 36.2148 19.3086 35.9765 19.1958 35.7093L22.514 32.48C22.7508 32.5581 22.9671 32.6867 23.1486 32.8562C23.3181 32.9915 23.4459 33.1718 23.5176 33.3765C23.5584 33.5281 23.5584 33.6877 23.5176 33.8392C23.3681 34.3243 23.1178 34.7723 22.7833 35.154L21.8747 36.2116H21.8819C21.8518 36.2308 21.8182 36.2393 21.7906 36.2609C21.4518 36.5702 21.0157 36.7517 20.5575 36.7741C20.234 36.7685 19.9256 36.6365 19.6982 36.4063ZM25.0751 36.7753C24.8972 36.8033 24.7186 36.8113 24.5391 36.7993L24.628 36.6959L24.6569 36.6611L24.6581 36.6623C25.022 36.2118 25.3302 35.7191 25.5763 35.1949L26.1075 35.7573C26.0634 35.8711 26.0113 35.9805 25.9512 36.0854C25.8656 36.2583 25.7426 36.4099 25.591 36.5292C25.4395 36.6486 25.2632 36.7326 25.0751 36.7753ZM32.7667 32.2985L30.6287 29.9297C30.4451 29.7149 30.1916 29.5718 29.9129 29.5254C29.6341 29.4791 29.348 29.5326 29.1048 29.6764C28.8615 29.8203 28.6769 30.0453 28.5832 30.3119C28.4896 30.5785 28.493 30.8696 28.5928 31.134C28.6484 31.2839 28.7334 31.4211 28.8428 31.5378L30.5686 33.4607C30.5566 33.5841 30.5313 33.7042 30.4929 33.8212C30.3927 34.1616 30.1643 34.4498 29.8559 34.6252C29.4802 34.8717 29.0242 34.9646 28.582 34.8848L27.1398 33.3537C26.9844 33.1896 26.7854 33.0732 26.5662 33.018C26.3469 32.9629 26.1165 32.9714 25.902 33.0424C25.8824 32.9259 25.8571 32.8104 25.8262 32.6963C25.6276 32.0684 25.2586 31.508 24.7602 31.0775C24.4113 30.7584 24.0111 30.5004 23.5764 30.3143C23.5832 30.0908 23.5691 29.8671 23.5344 29.6461C23.3792 28.8278 22.968 28.08 22.3602 27.5105C21.9183 27.0629 21.3719 26.7325 20.7702 26.549C20.7766 26.3888 20.7706 26.2286 20.7522 26.0683C20.6396 25.259 20.2527 24.5128 19.6561 23.9543C19.1128 23.3853 18.4146 22.988 17.6479 22.8114C17.3871 22.761 17.1211 22.7429 16.8559 22.7573C16.7618 22.3108 16.5711 21.8904 16.2971 21.5255C15.9885 21.1248 15.604 20.7889 15.1655 20.537C14.727 20.2852 14.2431 20.1222 13.7415 20.0576C13.24 19.993 12.7306 20.0279 12.2426 20.1604C11.7545 20.2928 11.2974 20.5203 10.8973 20.8296L10.8553 20.8633L9.37104 22.1132C8.67482 20.8459 8.34167 19.4111 8.40825 17.9667C8.47483 16.5223 8.93856 15.1243 9.74841 13.9264L9.77365 13.8904C10.4319 12.9094 11.295 12.0828 12.3035 11.4675C14.1433 10.5091 16.2502 10.1915 18.2909 10.565L18.8485 10.6539C18.0249 11.0255 17.3669 11.6873 17.0001 12.5131C16.8229 12.9663 16.7385 13.4505 16.7522 13.9369C16.7658 14.4233 16.8771 14.902 17.0795 15.3446C17.4395 16.2153 18.1108 16.9208 18.9627 17.3234C19.8146 17.726 20.7859 17.7969 21.6872 17.5222C23.2736 16.9346 25.0931 16.3445 25.7734 16.1293C25.8275 16.1276 25.8812 16.138 25.9308 16.1598C25.9803 16.1817 26.0242 16.2144 26.0594 16.2555C26.6471 16.8084 33.7414 23.0181 36.705 25.6008L36.9454 25.8063C37.132 26.1086 37.2118 26.4648 37.1719 26.8178C37.132 27.1708 36.9748 27.5002 36.7255 27.7533C36.5542 27.9378 36.3293 28.0639 36.0825 28.1138L33.9998 26.0022C33.7731 25.7865 33.4714 25.6672 33.1585 25.6696C32.8455 25.672 32.5458 25.7959 32.3225 26.0152C32.0992 26.2345 31.9698 26.5319 31.9616 26.8448C31.9535 27.1576 32.0672 27.4614 32.2788 27.692L34.269 29.7086C34.277 29.7447 34.2866 29.7803 34.2978 29.8156L34.3122 29.8528C34.4021 30.1095 34.4566 30.3771 34.4745 30.6484C34.5079 30.8545 34.4903 31.0656 34.423 31.2632C34.3557 31.4608 34.2409 31.6389 34.0887 31.7817C33.7294 32.1182 33.2546 32.3033 32.7631 32.2985H32.7667Z" fill="#1D2740"/>
</svg>
