<svg width="48" height="48" viewBox="0 0 48 48" fill="none" xmlns="http://www.w3.org/2000/svg">
<path d="M34.504 24.9788C33.936 29.7088 30.838 31.5988 29.5 32.9708C28.16 34.3468 28.4 34.6208 28.49 36.6388C28.505 36.8884 28.4688 37.1385 28.3834 37.3737C28.2981 37.6088 28.1656 37.8239 27.9939 38.0059C27.8223 38.1878 27.6152 38.3327 27.3855 38.4316C27.1557 38.5304 26.9081 38.5812 26.658 38.5808H21.342C21.0921 38.5803 20.8448 38.529 20.6154 38.4298C20.3859 38.3307 20.1791 38.1858 20.0074 38.0041C19.8358 37.8224 19.703 37.6076 19.6172 37.3728C19.5313 37.1381 19.4942 36.8883 19.508 36.6388C19.508 34.6588 19.692 34.1988 18.5 32.9708C16.98 31.4508 13.404 29.3048 13.404 23.4028C13.3949 21.9368 13.6896 20.4848 14.2694 19.1383C14.8493 17.7918 15.7019 16.5801 16.7733 15.5795C17.8448 14.5788 19.1119 13.811 20.4948 13.3244C21.8777 12.8378 23.3464 12.6429 24.8084 12.7521C26.2703 12.8613 27.6938 13.2722 28.9891 13.9589C30.2844 14.6455 31.4234 15.593 32.3343 16.7417C33.2452 17.8904 33.9083 19.2154 34.2817 20.633C34.6551 22.0507 34.7308 23.5304 34.504 24.9788Z" stroke="#1F2937" stroke-width="3" stroke-linecap="round" stroke-linejoin="round"/>
<path d="M20.9199 38.4719V41.4959C20.9199 42.3219 21.3799 42.9999 21.9459 42.9999H26.0519C26.6219 42.9999 27.0799 42.3199 27.0799 41.4959V38.4719M38.6639 23.8079H42.3319M34.9719 11.7839L37.5739 9.18191M36.9719 33.9999L39.5739 36.5999M23.9999 4.75391V7.71991M10.4799 9.17991L13.0639 11.7839M8.47992 36.5999L11.0639 33.9999M9.33592 23.8079H5.66992" stroke="#1F2937" stroke-width="3" stroke-linecap="round" stroke-linejoin="round"/>
<path d="M24.0063 22.5126C24.5457 22.5126 25.063 22.2984 25.4443 21.917C25.8257 21.5356 26.04 21.0183 26.04 20.479C26.04 19.9396 25.8257 19.4223 25.4443 19.041C25.063 18.6596 24.5457 18.4453 24.0063 18.4453C23.467 18.4453 22.9497 18.6596 22.5683 19.041C22.1869 19.4223 21.9727 19.9396 21.9727 20.479C21.9727 21.0183 22.1869 21.5356 22.5683 21.917C22.9497 22.2984 23.467 22.5126 24.0063 22.5126Z" fill="#1F2937"/>
<path d="M21.1999 27.5336L20.0529 38.9912C20.0165 39.265 20.0902 39.5421 20.258 39.7616C20.4258 39.981 20.6739 40.1248 20.9478 40.1613C21.2216 40.1978 21.4987 40.124 21.7181 39.9562C21.9375 39.7884 22.0813 39.5403 22.1178 39.2664L23.216 32.6706C23.2462 32.4829 23.3423 32.3121 23.487 32.1888C23.6317 32.0655 23.8156 31.9978 24.0057 31.9978C24.1958 31.9978 24.3797 32.0655 24.5244 32.1888C24.6692 32.3121 24.7652 32.4829 24.7955 32.6706L25.8936 39.2664C25.9301 39.5403 26.0739 39.7884 26.2933 39.9562C26.5128 40.124 26.7899 40.1978 27.0637 40.1613C27.3375 40.1248 27.5856 39.981 27.7534 39.7616C27.9212 39.5421 27.995 39.265 27.9585 38.9912L26.8128 27.5336C26.7838 27.2353 26.8209 26.9344 26.9217 26.6522C27.0225 26.37 27.1844 26.1135 27.3958 25.9012L30.7853 21.541C30.9526 21.3172 31.0265 21.0372 30.9915 20.7599C30.9565 20.4827 30.8154 20.2298 30.5978 20.0545C30.3802 19.8793 30.103 19.7952 29.8247 19.8201C29.5464 19.845 29.2885 19.9768 29.1055 20.188L26.2217 23.6506C26.1073 23.7986 25.9516 23.9094 25.7743 23.9692C25.4625 24.0696 24.8727 24.2078 24.0064 24.2078C23.1387 24.2078 22.5503 24.0696 22.2371 23.9692C22.0603 23.9092 21.9052 23.7984 21.7911 23.6506L18.9073 20.188C18.726 19.971 18.4667 19.8338 18.1853 19.806C17.9039 19.7782 17.6228 19.862 17.4026 20.0393C17.1823 20.2166 17.0404 20.4732 17.0074 20.7541C16.9744 21.0349 17.0529 21.3175 17.2262 21.541L20.6156 25.9012C21.0454 26.3296 21.2609 26.9289 21.1999 27.5336Z" fill="#1F2937"/>
</svg>
