<svg width="58" height="29" viewBox="0 0 58 29" fill="none" xmlns="http://www.w3.org/2000/svg">
<path d="M0.0551612 9.32018L13.1835 28.5714L8.71546 14.8363H12.9077L9.81869 5.78987L19.8029 6.06773C20.4264 6.42452 20.5023 6.58585 20.6303 7.27922C20.7513 8.17552 20.5257 8.58351 19.6374 9.1547L13.5145 9.20986L15.39 14.9466H20.3545C21.6599 15.7227 21.8918 16.2528 21.6783 17.3186C21.4262 17.9566 21.1441 18.2161 20.3545 18.4769H12.3009L14.2867 24.0482H20.3545C22.4643 23.8408 23.3275 23.4594 24.6019 22.5589C26.0025 21.2376 26.693 20.4044 27.3599 18.3666C27.7108 16.0703 27.6915 14.7105 26.8635 13.016C26.517 12.2774 26.2459 11.906 25.6499 11.306C26.599 9.91255 26.8849 8.99401 26.8635 7.05858C26.735 4.97299 26.3184 3.90953 24.7674 2.25956C23.641 1.08633 22.7792 0.634651 20.7958 0.218593C18.8123 -0.197465 0 0.10827 0 0.10827L4.85418 9.32018H0.0551612Z" fill="#B8FD34"/>
<path d="M55.5973 3.77031L51.7142 8.37738C49.1142 6.16448 47.3759 5.53402 43.7176 5.61314C38.5922 7.11597 37.0204 9.24143 36.6095 15.3867C37.2298 19.0859 38.408 20.6162 41.809 22.4948C44.4581 23.2831 46.0673 23.1805 49.0816 22.3631V28.0562C46.9552 28.5741 45.6152 28.6427 43.0594 28.5169C39.0701 27.9235 37.0507 27.0566 33.9769 24.206C31.4235 21.4143 30.7307 19.4062 30.2255 15.3867C30.1702 10.2566 31.1427 8.22883 33.5162 5.15243C36.3182 2.11781 38.2576 0.910623 42.7304 0.117555C49.4303 -0.445647 51.6298 1.05802 55.4988 3.70296L55.5973 3.77031Z" fill="#B8FD34"/>
<path d="M57.0103 24.6019C54.8861 26.2257 53.5651 26.9473 51.0869 28.0572V17.8229H41.2146L44.1105 11.9653H57.0103V24.6019Z" fill="#B8FD34"/>
</svg>
