<svg width="145" height="60" viewBox="0 0 145 60" fill="none" xmlns="http://www.w3.org/2000/svg">
<path d="M44.0501 9.32018L57.1785 28.5714L52.7104 14.8363H56.9026L53.8136 5.78987L63.7978 6.06773C64.4213 6.42452 64.4972 6.58585 64.6252 7.27922C64.7463 8.17552 64.5206 8.58351 63.6323 9.1547L57.5094 9.20986L59.3849 14.9466H64.3494C65.6549 15.7227 65.8867 16.2528 65.6733 17.3186C65.4211 17.9566 65.139 18.2161 64.3494 18.4769H56.2959L58.2817 24.0482H64.3494C66.4592 23.8408 67.3224 23.4594 68.5968 22.5589C69.9974 21.2376 70.6879 20.4044 71.3549 18.3666C71.7058 16.0703 71.6864 14.7105 70.8584 13.016C70.5119 12.2774 70.2408 11.906 69.6449 11.306C70.594 9.91255 70.8799 8.99401 70.8584 7.05858C70.7299 4.97299 70.3134 3.90953 68.7623 2.25956C67.6359 1.08633 66.7741 0.634651 64.7907 0.218593C62.8073 -0.197465 43.9949 0.10827 43.9949 0.10827L48.8491 9.32018H44.0501Z" fill="#1F2937"/>
<path d="M99.5922 3.77031L95.7091 8.37738C93.1091 6.16448 91.3708 5.53402 87.7125 5.61314C82.5871 7.11597 81.0153 9.24143 80.6044 15.3867C81.2247 19.0859 82.4029 20.6162 85.8039 22.4948C88.453 23.2831 90.0622 23.1805 93.0765 22.3631V28.0562C90.9501 28.5741 89.6101 28.6427 87.0544 28.5169C83.065 27.9235 81.0456 27.0566 77.9718 24.206C75.4184 21.4143 74.7256 19.4062 74.2204 15.3867C74.1651 10.2566 75.1376 8.22883 77.5111 5.15243C80.3131 2.11781 82.2525 0.910623 86.7253 0.117555C93.4252 -0.445647 95.6247 1.05802 99.4937 3.70296L99.5922 3.77031Z" fill="#1F2937"/>
<path d="M101.005 24.6019C98.881 26.2257 97.56 26.9473 95.0818 28.0572V17.8229H85.2095L88.1053 11.9653H101.005V24.6019Z" fill="#B8FD34"/>
<path d="M2.84638 44.4494V42.8266H4.68638C4.99876 42.8266 5.23114 42.7466 5.38353 42.5866C5.53591 42.4266 5.6121 42.1942 5.6121 41.8894C5.6121 41.5847 5.53591 41.3561 5.38353 41.2037C5.23114 41.0437 4.99876 40.9637 4.68638 40.9637H2.84638V39.7066H4.61781C5.20448 39.7066 5.73019 39.779 6.19495 39.9237C6.65972 40.0609 7.02543 40.2894 7.2921 40.6094C7.55876 40.9294 7.6921 41.3561 7.6921 41.8894V42.0494C7.6921 42.5523 7.574 42.9828 7.33781 43.3409C7.10162 43.699 6.75495 43.9732 6.29781 44.1637C5.84067 44.3542 5.28067 44.4494 4.61781 44.4494H2.84638ZM1.01781 44.4494V35.9694H3.07495V44.4494H1.01781ZM2.84638 40.6437V39.3866H4.37781C4.69019 39.3866 4.91495 39.3104 5.0521 39.158C5.19686 38.998 5.26924 38.777 5.26924 38.4951C5.26924 38.2056 5.19686 37.9847 5.0521 37.8323C4.91495 37.6723 4.69019 37.5923 4.37781 37.5923H2.84638V35.9694H4.28638C5.26162 35.9694 6.01591 36.1751 6.54924 36.5866C7.08257 36.9904 7.34924 37.5694 7.34924 38.3237V38.4951C7.34924 39.0209 7.2121 39.4437 6.93781 39.7637C6.67114 40.0761 6.30543 40.3009 5.84067 40.438C5.38353 40.5751 4.86543 40.6437 4.28638 40.6437H2.84638ZM12.725 44.6094C11.925 44.6094 11.2469 44.4609 10.6908 44.1637C10.1422 43.8666 9.72314 43.4475 9.43361 42.9066C9.14409 42.358 8.99933 41.7104 8.99933 40.9637V36.038H11.125V41.0094C11.125 41.337 11.186 41.6228 11.3079 41.8666C11.4374 42.1104 11.6203 42.297 11.8565 42.4266C12.0927 42.5561 12.3822 42.6209 12.725 42.6209C13.0679 42.6209 13.3574 42.5561 13.5936 42.4266C13.8298 42.297 14.0089 42.1142 14.1308 41.878C14.2527 41.6342 14.3136 41.3447 14.3136 41.0094V36.038H16.4393V40.9637C16.4393 41.7104 16.2946 42.358 16.005 42.9066C15.7231 43.4475 15.3041 43.8666 14.7479 44.1637C14.1993 44.4609 13.525 44.6094 12.725 44.6094ZM22.102 44.6094C21.3477 44.6094 20.7001 44.4799 20.1592 44.2209C19.6182 43.9542 19.1725 43.6075 18.822 43.1809C18.4715 42.7466 18.2125 42.278 18.0449 41.7751C17.8772 41.2723 17.7934 40.7847 17.7934 40.3123V40.0609C17.7934 39.5351 17.8772 39.0209 18.0449 38.518C18.2201 38.0075 18.483 37.5466 18.8334 37.1351C19.1915 36.7237 19.6372 36.3961 20.1706 36.1523C20.7039 35.9085 21.3287 35.7866 22.0449 35.7866C22.8068 35.7866 23.4811 35.9313 24.0677 36.2209C24.662 36.5028 25.1382 36.9028 25.4963 37.4209C25.8544 37.9313 26.0639 38.5256 26.1249 39.2037H23.9992C23.9458 38.9142 23.8315 38.6628 23.6563 38.4494C23.4811 38.2361 23.2563 38.0723 22.982 37.958C22.7077 37.8361 22.3953 37.7751 22.0449 37.7751C21.7172 37.7751 21.4201 37.8323 21.1534 37.9466C20.8944 38.0609 20.6734 38.2247 20.4906 38.438C20.3153 38.6437 20.1782 38.8951 20.0792 39.1923C19.9877 39.4894 19.942 39.8247 19.942 40.198C19.942 40.5713 19.9877 40.9066 20.0792 41.2037C20.1782 41.5009 20.3192 41.7561 20.502 41.9694C20.6925 42.1828 20.9211 42.3466 21.1877 42.4609C21.4544 42.5675 21.7592 42.6209 22.102 42.6209C22.6353 42.6209 23.0849 42.4913 23.4506 42.2323C23.8239 41.9732 24.0487 41.6266 24.1249 41.1923H26.2506C26.182 41.817 25.9725 42.3885 25.622 42.9066C25.2715 43.4247 24.7992 43.8399 24.2049 44.1523C23.6106 44.457 22.9096 44.6094 22.102 44.6094ZM33.1507 44.3809L30.4421 40.4837H29.3107L32.6821 36.038H35.1278L32.1107 40.0151V39.2037L35.7107 44.3809H33.1507ZM27.5964 44.3809V36.038H29.7221V44.3809H27.5964ZM36.7089 44.3809V36.038H38.766V44.3809H36.7089ZM38.5375 44.3809V42.6437H42.0575V44.3809H38.5375ZM38.5375 41.0094V39.2723H41.8175V41.0094H38.5375ZM38.5375 37.7751V36.038H41.9889V37.7751H38.5375ZM45.2666 41.2494L42.9008 36.038H45.0723L46.6608 39.7523L46.3637 39.6494H47.1866L46.8666 39.7523L48.2723 36.038H50.3294L48.1694 41.2494H45.2666ZM45.678 44.3809V40.9751H47.758V44.3809H45.678ZM51.4517 44.3809V36.038H53.5089V44.3809H51.4517ZM53.2803 44.3809V42.6437H56.8003V44.3809H53.2803ZM53.2803 41.0094V39.2723H56.5603V41.0094H53.2803ZM53.2803 37.7751V36.038H56.7317V37.7751H53.2803ZM65.0392 44.6094C64.2544 44.6094 63.5801 44.4799 63.0163 44.2209C62.4525 43.9542 61.9915 43.6075 61.6334 43.1809C61.2753 42.7542 61.0125 42.2894 60.8449 41.7866C60.6772 41.2837 60.5934 40.7923 60.5934 40.3123V40.0609C60.5934 39.5428 60.6811 39.0323 60.8563 38.5294C61.0315 38.019 61.2944 37.558 61.6449 37.1466C62.003 36.7351 62.4487 36.4075 62.982 36.1637C63.5153 35.9123 64.1401 35.7866 64.8563 35.7866C65.6258 35.7866 66.3039 35.9275 66.8906 36.2094C67.4849 36.4913 67.9611 36.8837 68.3192 37.3866C68.6772 37.8818 68.8868 38.457 68.9477 39.1123H66.822C66.7763 38.8609 66.6658 38.6361 66.4906 38.438C66.3153 38.2323 66.0868 38.0723 65.8049 37.958C65.5306 37.8361 65.2144 37.7751 64.8563 37.7751C64.5134 37.7751 64.2087 37.8361 63.942 37.958C63.683 38.0723 63.462 38.2399 63.2792 38.4609C63.1039 38.6742 62.9706 38.9294 62.8792 39.2266C62.7877 39.5237 62.742 39.8475 62.742 40.198C62.742 40.5485 62.7915 40.8761 62.8906 41.1809C62.9896 41.478 63.1344 41.7409 63.3249 41.9694C63.5153 42.1904 63.7553 42.3618 64.0449 42.4837C64.3344 42.6056 64.6658 42.6666 65.0392 42.6666C65.5115 42.6666 65.9192 42.5675 66.262 42.3694C66.6049 42.1713 66.8449 41.9085 66.982 41.5809L66.822 42.838V41.0209H68.7649V42.7351C68.4144 43.337 67.9153 43.8018 67.2677 44.1294C66.6277 44.4494 65.8849 44.6094 65.0392 44.6094ZM64.8106 41.4323V39.9466H69.4506V41.4323H64.8106ZM70.7535 44.3809V36.038H72.8107V44.3809H70.7535ZM72.5821 44.3809V42.6437H76.1021V44.3809H72.5821ZM72.5821 41.0094V39.2723H75.8621V41.0094H72.5821ZM72.5821 37.7751V36.038H76.0335V37.7751H72.5821ZM77.7455 44.3809V36.038H81.2312L84.0083 42.6894H84.4083L84.1798 42.8951V36.038H86.1683V44.3809H82.6598L79.8826 37.7294H79.4826L79.7112 37.5237V44.3809H77.7455ZM88.0857 44.3809V36.038H90.1428V44.3809H88.0857ZM89.9142 44.3809V42.6437H93.4342V44.3809H89.9142ZM89.9142 41.0094V39.2723H93.1942V41.0094H89.9142ZM89.9142 37.7751V36.038H93.3657V37.7751H89.9142ZM95.0776 44.3809V35.9694H97.2033V44.3809H95.0776ZM100.106 44.3809L97.7633 40.838H100.072L102.552 44.3809H100.106ZM96.6662 41.8209V40.1866H98.6662C98.9176 40.1866 99.1348 40.137 99.3176 40.038C99.5005 39.939 99.6414 39.798 99.7405 39.6151C99.8472 39.4323 99.9005 39.219 99.9005 38.9751C99.9005 38.7237 99.8472 38.5066 99.7405 38.3237C99.6414 38.1409 99.5005 37.9999 99.3176 37.9009C99.1348 37.8018 98.9176 37.7523 98.6662 37.7523H96.6662V35.9694H98.5405C99.2643 35.9694 99.8891 36.0799 100.415 36.3009C100.94 36.5142 101.344 36.8342 101.626 37.2609C101.908 37.6799 102.049 38.2018 102.049 38.8266V39.0094C102.049 39.6342 101.904 40.1561 101.615 40.5751C101.333 40.9866 100.929 41.299 100.403 41.5123C99.8853 41.718 99.2643 41.8209 98.5405 41.8209H96.6662ZM103.012 44.3809L105.686 36.038H109.092L111.857 44.3809H109.663L107.515 37.5237L108.12 37.7523H106.612L107.229 37.5237L105.137 44.3809H103.012ZM105.195 42.4494L105.835 40.7123H109L109.64 42.4494H105.195ZM113.922 44.3809V37.6609H116.048V44.3809H113.922ZM111.636 37.8894V36.038H118.334V37.8894H111.636ZM123.493 44.6094C122.731 44.6094 122.068 44.4799 121.505 44.2209C120.941 43.9542 120.472 43.6075 120.099 43.1809C119.726 42.7466 119.447 42.278 119.265 41.7751C119.082 41.2723 118.99 40.7847 118.99 40.3123V40.0609C118.99 39.5351 119.086 39.0209 119.276 38.518C119.467 38.0075 119.752 37.5466 120.133 37.1351C120.514 36.7237 120.983 36.3961 121.539 36.1523C122.103 35.9085 122.754 35.7866 123.493 35.7866C124.225 35.7866 124.868 35.9085 125.425 36.1523C125.988 36.3961 126.461 36.7237 126.842 37.1351C127.223 37.5466 127.508 38.0075 127.699 38.518C127.897 39.0209 127.996 39.5351 127.996 40.0609V40.3123C127.996 40.7847 127.901 41.2723 127.71 41.7751C127.527 42.278 127.249 42.7466 126.876 43.1809C126.503 43.6075 126.034 43.9542 125.47 44.2209C124.907 44.4799 124.247 44.6094 123.493 44.6094ZM123.493 42.6209C123.859 42.6209 124.187 42.5599 124.476 42.438C124.766 42.3161 125.013 42.1447 125.219 41.9237C125.425 41.7028 125.581 41.4475 125.687 41.158C125.794 40.8609 125.847 40.5409 125.847 40.198C125.847 39.8323 125.79 39.5009 125.676 39.2037C125.569 38.9066 125.413 38.6513 125.207 38.438C125.002 38.2247 124.754 38.0609 124.465 37.9466C124.175 37.8323 123.851 37.7751 123.493 37.7751C123.127 37.7751 122.8 37.8323 122.51 37.9466C122.221 38.0609 121.973 38.2247 121.767 38.438C121.562 38.6513 121.406 38.9066 121.299 39.2037C121.192 39.5009 121.139 39.8323 121.139 40.198C121.139 40.5409 121.192 40.8609 121.299 41.158C121.406 41.4475 121.562 41.7028 121.767 41.9237C121.973 42.1447 122.221 42.3161 122.51 42.438C122.8 42.5599 123.127 42.6209 123.493 42.6209ZM129.508 44.3809V35.9694H131.633V44.3809H129.508ZM134.536 44.3809L132.193 40.838H134.502L136.982 44.3809H134.536ZM131.096 41.8209V40.1866H133.096C133.348 40.1866 133.565 40.137 133.748 40.038C133.93 39.939 134.071 39.798 134.17 39.6151C134.277 39.4323 134.33 39.219 134.33 38.9751C134.33 38.7237 134.277 38.5066 134.17 38.3237C134.071 38.1409 133.93 37.9999 133.748 37.9009C133.565 37.8018 133.348 37.7523 133.096 37.7523H131.096V35.9694H132.97C133.694 35.9694 134.319 36.0799 134.845 36.3009C135.37 36.5142 135.774 36.8342 136.056 37.2609C136.338 37.6799 136.479 38.2018 136.479 38.8266V39.0094C136.479 39.6342 136.334 40.1561 136.045 40.5751C135.763 40.9866 135.359 41.299 134.833 41.5123C134.315 41.718 133.694 41.8209 132.97 41.8209H131.096ZM141.112 44.6094C140.334 44.6094 139.679 44.4875 139.146 44.2437C138.62 43.9999 138.22 43.6685 137.946 43.2494C137.679 42.8228 137.546 42.3351 137.546 41.7866H139.603C139.603 41.9847 139.656 42.1675 139.763 42.3351C139.877 42.4951 140.045 42.6209 140.266 42.7123C140.487 42.8037 140.769 42.8494 141.112 42.8494C141.409 42.8494 141.66 42.8113 141.866 42.7351C142.079 42.659 142.239 42.5523 142.346 42.4151C142.46 42.278 142.517 42.1142 142.517 41.9237C142.517 41.6799 142.414 41.4932 142.209 41.3637C142.003 41.2266 141.656 41.139 141.169 41.1009L140.632 41.0551C139.771 40.979 139.085 40.7085 138.574 40.2437C138.064 39.779 137.809 39.1618 137.809 38.3923C137.809 37.8437 137.934 37.3751 138.186 36.9866C138.445 36.598 138.807 36.3009 139.272 36.0951C139.736 35.8894 140.285 35.7866 140.917 35.7866C141.603 35.7866 142.182 35.9009 142.654 36.1294C143.134 36.358 143.5 36.6818 143.752 37.1009C144.003 37.5123 144.129 37.9923 144.129 38.5409H142.072C142.072 38.358 142.026 38.1904 141.934 38.038C141.843 37.8856 141.71 37.7675 141.534 37.6837C141.367 37.5923 141.161 37.5466 140.917 37.5466C140.689 37.5466 140.494 37.5847 140.334 37.6609C140.182 37.7294 140.064 37.8285 139.98 37.958C139.904 38.0875 139.866 38.2323 139.866 38.3923C139.866 38.6056 139.938 38.7885 140.083 38.9409C140.228 39.0932 140.479 39.1847 140.837 39.2151L141.374 39.2609C141.999 39.3142 142.552 39.4513 143.032 39.6723C143.512 39.8856 143.889 40.179 144.163 40.5523C144.437 40.9256 144.574 41.3828 144.574 41.9237C144.574 42.4647 144.433 42.937 144.152 43.3409C143.877 43.7447 143.481 44.057 142.963 44.278C142.453 44.499 141.835 44.6094 141.112 44.6094Z" fill="#1F2937"/>
<path d="M18.7783 54.722V53.7849H19.8602C20.0786 53.7849 20.2615 53.7417 20.4088 53.6554C20.5612 53.569 20.6755 53.4497 20.7517 53.2973C20.8329 53.1449 20.8736 52.9697 20.8736 52.7716C20.8736 52.5735 20.8329 52.3982 20.7517 52.2459C20.6755 52.0935 20.5612 51.9766 20.4088 51.8954C20.2615 51.809 20.0786 51.7659 19.8602 51.7659H18.7783V50.8287H19.7688C20.2361 50.8287 20.6323 50.9049 20.9574 51.0573C21.2875 51.2097 21.539 51.4281 21.7117 51.7125C21.8844 51.9919 21.9707 52.3246 21.9707 52.7106V52.8325C21.9707 53.2186 21.8844 53.5538 21.7117 53.8382C21.539 54.1176 21.2875 54.336 20.9574 54.4935C20.6323 54.6459 20.2361 54.722 19.7688 54.722H18.7783ZM17.8488 56.4287V50.8287H18.9307V56.4287H17.8488ZM26.0865 56.5735C25.5837 56.5735 25.1469 56.4846 24.7761 56.3068C24.4104 56.129 24.1056 55.8979 23.8618 55.6135C23.6231 55.3239 23.4427 55.0141 23.3208 54.6839C23.204 54.3487 23.1456 54.0262 23.1456 53.7163V53.5487C23.1456 53.2084 23.2065 52.8706 23.3285 52.5354C23.4504 52.1951 23.6332 51.8878 23.877 51.6135C24.1259 51.3392 24.4332 51.1208 24.7989 50.9582C25.1646 50.7906 25.5938 50.7068 26.0865 50.7068C26.5742 50.7068 27.0008 50.7906 27.3665 50.9582C27.7323 51.1208 28.037 51.3392 28.2808 51.6135C28.5297 51.8878 28.7151 52.1951 28.837 52.5354C28.9589 52.8706 29.0199 53.2084 29.0199 53.5487V53.7163C29.0199 54.0262 28.9589 54.3487 28.837 54.6839C28.7202 55.0141 28.5399 55.3239 28.2961 55.6135C28.0573 55.8979 27.7526 56.129 27.3818 56.3068C27.0161 56.4846 26.5843 56.5735 26.0865 56.5735ZM26.0865 55.5678C26.371 55.5678 26.625 55.517 26.8485 55.4154C27.077 55.3138 27.27 55.1741 27.4275 54.9963C27.59 54.8135 27.7119 54.6078 27.7932 54.3792C27.8796 54.1455 27.9227 53.8992 27.9227 53.6401C27.9227 53.3608 27.8796 53.1043 27.7932 52.8706C27.7119 52.637 27.59 52.4338 27.4275 52.2611C27.27 52.0884 27.077 51.9538 26.8485 51.8573C26.6199 51.7608 26.3659 51.7125 26.0865 51.7125C25.8021 51.7125 25.5456 51.7608 25.317 51.8573C25.0885 51.9538 24.8929 52.0884 24.7304 52.2611C24.5729 52.4338 24.451 52.637 24.3646 52.8706C24.2834 53.1043 24.2427 53.3608 24.2427 53.6401C24.2427 53.8992 24.2834 54.1455 24.3646 54.3792C24.451 54.6078 24.5729 54.8135 24.7304 54.9963C24.8929 55.1741 25.0885 55.3138 25.317 55.4154C25.5456 55.517 25.8021 55.5678 26.0865 55.5678ZM31.4926 56.4287L30.0754 50.8668H31.1954L32.3459 55.7049L32.0487 55.5297H32.8107L32.4754 55.7049L33.3821 51.0801H34.3116L33.184 56.4287H31.4926ZM34.8145 56.4287L33.5878 51.0801H34.5554L35.5992 55.7049L35.2716 55.5297H36.0183L35.7288 55.7049L36.7421 50.8668H37.8011L36.5364 56.4287H34.8145ZM39.2756 56.4287V50.8668H40.3346V56.4287H39.2756ZM40.1823 56.4287V55.5144H42.7042V56.4287H40.1823ZM40.1823 54.0592V53.1449H42.5061V54.0592H40.1823ZM40.1823 51.7811V50.8668H42.6432V51.7811H40.1823ZM44.4238 56.4287V50.8287H45.5057V56.4287H44.4238ZM47.8219 56.4287L46.1152 54.0059H47.3267L49.0867 56.4287H47.8219ZM45.1857 54.5697V53.6935H46.6029C46.801 53.6935 46.9711 53.6528 47.1133 53.5716C47.2606 53.4903 47.3749 53.376 47.4562 53.2287C47.5375 53.0814 47.5781 52.9138 47.5781 52.7259C47.5781 52.5328 47.5375 52.3627 47.4562 52.2154C47.3749 52.0681 47.2606 51.9538 47.1133 51.8725C46.9711 51.7913 46.801 51.7506 46.6029 51.7506H45.1857V50.8287H46.4886C46.9356 50.8287 47.3216 50.8947 47.6467 51.0268C47.9768 51.1589 48.2308 51.3595 48.4086 51.6287C48.5863 51.8979 48.6752 52.2357 48.6752 52.642V52.7639C48.6752 53.1754 48.5838 53.5132 48.401 53.7773C48.2232 54.0414 47.9717 54.2395 47.6467 54.3716C47.3216 54.5036 46.9356 54.5697 46.4886 54.5697H45.1857ZM50.5322 56.4287V50.8668H51.6141V56.4287H50.5322ZM53.6116 56.4287V50.8668H55.3868L57.7259 55.5297H57.9773L57.8249 55.6668V50.8668H58.8459V56.4287H57.063L54.724 51.7659H54.4649L54.6173 51.6287V56.4287H53.6116ZM63.4187 56.5735C62.9413 56.5735 62.5197 56.4947 62.154 56.3373C61.7934 56.1747 61.4886 55.9589 61.2397 55.6897C60.9959 55.4154 60.8105 55.1081 60.6835 54.7678C60.5616 54.4224 60.5007 54.0643 60.5007 53.6935V53.5259C60.5007 53.1754 60.5616 52.8325 60.6835 52.4973C60.8054 52.162 60.9832 51.8598 61.2168 51.5906C61.4556 51.3214 61.7476 51.1081 62.093 50.9506C62.4435 50.7881 62.8448 50.7068 63.2968 50.7068C63.7845 50.7068 64.2162 50.7982 64.5921 50.9811C64.968 51.1589 65.2702 51.4103 65.4987 51.7354C65.7273 52.0554 65.8619 52.4287 65.9026 52.8554H64.813C64.7775 52.6166 64.6886 52.4135 64.5464 52.2459C64.4041 52.0732 64.2238 51.9411 64.0054 51.8497C63.7921 51.7582 63.5559 51.7125 63.2968 51.7125C63.0378 51.7125 62.8016 51.7582 62.5883 51.8497C62.38 51.9411 62.2022 52.0706 62.0549 52.2382C61.9076 52.4059 61.7934 52.6065 61.7121 52.8401C61.6359 53.0738 61.5978 53.3328 61.5978 53.6173C61.5978 53.9271 61.641 54.2039 61.7273 54.4478C61.8137 54.6916 61.9356 54.8998 62.093 55.0725C62.2505 55.2401 62.441 55.3697 62.6645 55.4611C62.888 55.5474 63.1394 55.5906 63.4187 55.5906C63.7895 55.5906 64.1146 55.5144 64.394 55.362C64.6734 55.2046 64.8765 55.0014 65.0035 54.7525L64.813 55.6287V54.1963H65.8111V55.4306C65.5724 55.7913 65.2473 56.0732 64.8359 56.2763C64.4245 56.4744 63.9521 56.5735 63.4187 56.5735ZM63.2435 54.4097V53.602H66.2759V54.4097H63.2435ZM72.6443 56.5735C72.1414 56.5735 71.7046 56.4846 71.3338 56.3068C70.9681 56.129 70.6633 55.8979 70.4195 55.6135C70.1808 55.3239 70.0005 55.0141 69.8786 54.6839C69.7617 54.3487 69.7033 54.0262 69.7033 53.7163V53.5487C69.7033 53.2084 69.7643 52.8706 69.8862 52.5354C70.0081 52.1951 70.191 51.8878 70.4348 51.6135C70.6837 51.3392 70.991 51.1208 71.3567 50.9582C71.7224 50.7906 72.1516 50.7068 72.6443 50.7068C73.1319 50.7068 73.5586 50.7906 73.9243 50.9582C74.29 51.1208 74.5948 51.3392 74.8386 51.6135C75.0875 51.8878 75.2729 52.1951 75.3948 52.5354C75.5167 52.8706 75.5776 53.2084 75.5776 53.5487V53.7163C75.5776 54.0262 75.5167 54.3487 75.3948 54.6839C75.2779 55.0141 75.0976 55.3239 74.8538 55.6135C74.6151 55.8979 74.3103 56.129 73.9395 56.3068C73.5738 56.4846 73.1421 56.5735 72.6443 56.5735ZM72.6443 55.5678C72.9287 55.5678 73.1827 55.517 73.4062 55.4154C73.6348 55.3138 73.8278 55.1741 73.9852 54.9963C74.1478 54.8135 74.2697 54.6078 74.351 54.3792C74.4373 54.1455 74.4805 53.8992 74.4805 53.6401C74.4805 53.3608 74.4373 53.1043 74.351 52.8706C74.2697 52.637 74.1478 52.4338 73.9852 52.2611C73.8278 52.0884 73.6348 51.9538 73.4062 51.8573C73.1776 51.7608 72.9237 51.7125 72.6443 51.7125C72.3598 51.7125 72.1033 51.7608 71.8748 51.8573C71.6462 51.9538 71.4506 52.0884 71.2881 52.2611C71.1306 52.4338 71.0087 52.637 70.9224 52.8706C70.8411 53.1043 70.8005 53.3608 70.8005 53.6401C70.8005 53.8992 70.8411 54.1455 70.9224 54.3792C71.0087 54.6078 71.1306 54.8135 71.2881 54.9963C71.4506 55.1741 71.6462 55.3138 71.8748 55.4154C72.1033 55.517 72.3598 55.5678 72.6443 55.5678ZM80.8823 56.4287V50.8668H81.9642V56.4287H80.8823ZM77.2327 56.4287V50.8668H78.3146V56.4287H77.2327ZM78.1166 54.1201V53.1678H81.0804V54.1201H78.1166ZM83.9587 56.4287V50.8668H85.0406V56.4287H83.9587ZM89.6514 56.5735C89.1486 56.5735 88.7118 56.4846 88.341 56.3068C87.9752 56.129 87.6705 55.8979 87.4267 55.6135C87.1879 55.3239 87.0076 55.0141 86.8857 54.6839C86.7689 54.3487 86.7105 54.0262 86.7105 53.7163V53.5487C86.7105 53.2084 86.7714 52.8706 86.8933 52.5354C87.0152 52.1951 87.1981 51.8878 87.4419 51.6135C87.6908 51.3392 87.9981 51.1208 88.3638 50.9582C88.7295 50.7906 89.1587 50.7068 89.6514 50.7068C90.1391 50.7068 90.5657 50.7906 90.9314 50.9582C91.2971 51.1208 91.6019 51.3392 91.8457 51.6135C92.0946 51.8878 92.28 52.1951 92.4019 52.5354C92.5238 52.8706 92.5848 53.2084 92.5848 53.5487V53.7163C92.5848 54.0262 92.5238 54.3487 92.4019 54.6839C92.2851 55.0141 92.1048 55.3239 91.861 55.6135C91.6222 55.8979 91.3175 56.129 90.9467 56.3068C90.581 56.4846 90.1492 56.5735 89.6514 56.5735ZM89.6514 55.5678C89.9359 55.5678 90.1898 55.517 90.4133 55.4154C90.6419 55.3138 90.8349 55.1741 90.9924 54.9963C91.1549 54.8135 91.2768 54.6078 91.3581 54.3792C91.4445 54.1455 91.4876 53.8992 91.4876 53.6401C91.4876 53.3608 91.4445 53.1043 91.3581 52.8706C91.2768 52.637 91.1549 52.4338 90.9924 52.2611C90.8349 52.0884 90.6419 51.9538 90.4133 51.8573C90.1848 51.7608 89.9308 51.7125 89.6514 51.7125C89.367 51.7125 89.1105 51.7608 88.8819 51.8573C88.6533 51.9538 88.4578 52.0884 88.2952 52.2611C88.1378 52.4338 88.0159 52.637 87.9295 52.8706C87.8483 53.1043 87.8076 53.3608 87.8076 53.6401C87.8076 53.8992 87.8483 54.1455 87.9295 54.3792C88.0159 54.6078 88.1378 54.8135 88.2952 54.9963C88.4578 55.1741 88.6533 55.3138 88.8819 55.4154C89.1105 55.517 89.367 55.5678 89.6514 55.5678ZM100.143 56.4287V50.8668H101.225V56.4287H100.143ZM96.4938 56.4287V50.8668H97.5757V56.4287H96.4938ZM97.3776 54.1201V53.1678H100.341V54.1201H97.3776ZM105.818 56.5735C105.315 56.5735 104.878 56.4846 104.507 56.3068C104.142 56.129 103.837 55.8979 103.593 55.6135C103.354 55.3239 103.174 55.0141 103.052 54.6839C102.935 54.3487 102.877 54.0262 102.877 53.7163V53.5487C102.877 53.2084 102.938 52.8706 103.06 52.5354C103.182 52.1951 103.364 51.8878 103.608 51.6135C103.857 51.3392 104.164 51.1208 104.53 50.9582C104.896 50.7906 105.325 50.7068 105.818 50.7068C106.305 50.7068 106.732 50.7906 107.098 50.9582C107.464 51.1208 107.768 51.3392 108.012 51.6135C108.261 51.8878 108.446 52.1951 108.568 52.5354C108.69 52.8706 108.751 53.2084 108.751 53.5487V53.7163C108.751 54.0262 108.69 54.3487 108.568 54.6839C108.451 55.0141 108.271 55.3239 108.027 55.6135C107.789 55.8979 107.484 56.129 107.113 56.3068C106.747 56.4846 106.316 56.5735 105.818 56.5735ZM105.818 55.5678C106.102 55.5678 106.356 55.517 106.58 55.4154C106.808 55.3138 107.001 55.1741 107.159 54.9963C107.321 54.8135 107.443 54.6078 107.524 54.3792C107.611 54.1455 107.654 53.8992 107.654 53.6401C107.654 53.3608 107.611 53.1043 107.524 52.8706C107.443 52.637 107.321 52.4338 107.159 52.2611C107.001 52.0884 106.808 51.9538 106.58 51.8573C106.351 51.7608 106.097 51.7125 105.818 51.7125C105.533 51.7125 105.277 51.7608 105.048 51.8573C104.82 51.9538 104.624 52.0884 104.462 52.2611C104.304 52.4338 104.182 52.637 104.096 52.8706C104.015 53.1043 103.974 53.3608 103.974 53.6401C103.974 53.8992 104.015 54.1455 104.096 54.3792C104.182 54.6078 104.304 54.8135 104.462 54.9963C104.624 55.1741 104.82 55.3138 105.048 55.4154C105.277 55.517 105.533 55.5678 105.818 55.5678ZM110.406 56.4287V50.8668H111.884L113.279 54.1887H113.416L114.802 50.8668H116.303V56.4287H115.229V51.682L115.366 51.6973L113.865 55.2935H112.761L111.252 51.6973L111.397 51.682V56.4287H110.406ZM118.285 56.4287V50.8668H119.344V56.4287H118.285ZM119.192 56.4287V55.5144H121.714V56.4287H119.192ZM119.192 54.0592V53.1449H121.516V54.0592H119.192ZM119.192 51.7811V50.8668H121.653V51.7811H119.192ZM125.286 56.5735C124.793 56.5735 124.377 56.4947 124.036 56.3373C123.701 56.1798 123.445 55.9639 123.267 55.6897C123.089 55.4103 123 55.0954 123 54.7449H124.059C124.059 54.8922 124.1 55.037 124.181 55.1792C124.262 55.3163 124.392 55.4281 124.57 55.5144C124.753 55.6008 124.991 55.6439 125.286 55.6439C125.55 55.6439 125.771 55.6059 125.949 55.5297C126.126 55.4535 126.259 55.3544 126.345 55.2325C126.431 55.1055 126.474 54.9633 126.474 54.8059C126.474 54.6078 126.391 54.4503 126.223 54.3335C126.055 54.2116 125.796 54.1354 125.446 54.1049L124.958 54.0668C124.425 54.0211 123.998 53.856 123.678 53.5716C123.363 53.282 123.206 52.9011 123.206 52.4287C123.206 52.0732 123.29 51.7684 123.457 51.5144C123.625 51.2554 123.859 51.0573 124.158 50.9201C124.463 50.7779 124.819 50.7068 125.225 50.7068C125.646 50.7068 126.01 50.7805 126.314 50.9278C126.619 51.0751 126.855 51.2833 127.023 51.5525C127.191 51.8166 127.274 52.129 127.274 52.4897H126.215C126.215 52.3373 126.177 52.1976 126.101 52.0706C126.03 51.9386 125.921 51.8344 125.773 51.7582C125.631 51.677 125.448 51.6363 125.225 51.6363C125.012 51.6363 124.834 51.6719 124.692 51.743C124.549 51.8141 124.443 51.9106 124.372 52.0325C124.3 52.1544 124.265 52.2865 124.265 52.4287C124.265 52.6014 124.328 52.7538 124.455 52.8859C124.582 53.0128 124.783 53.0865 125.057 53.1068L125.545 53.1525C125.941 53.183 126.289 53.2668 126.589 53.4039C126.888 53.5411 127.119 53.7265 127.282 53.9601C127.45 54.1938 127.533 54.4757 127.533 54.8059C127.533 55.1563 127.442 55.4662 127.259 55.7354C127.076 55.9995 126.815 56.2052 126.474 56.3525C126.139 56.4998 125.743 56.5735 125.286 56.5735Z" fill="#8B8B8B"/>
<path d="M110.701 24.3549H109.82V25.554H110.723C111.181 25.554 111.426 25.3097 111.426 24.9594C111.426 24.5541 111.15 24.3549 110.701 24.3549ZM111.457 26.1834L112.452 27.6466H111.404L110.532 26.3295H109.82V27.6466H108.918V23.5577H110.735C111.71 23.5577 112.339 24.0593 112.339 24.9079C112.339 25.5739 111.977 25.9891 111.457 26.1834ZM110.512 22.2938C108.566 22.2938 107.099 23.8351 107.099 25.725C107.099 27.6167 108.557 29.1363 110.491 29.1363C112.432 29.1363 113.899 27.5935 113.899 25.7035C113.899 23.8118 112.444 22.2938 110.512 22.2938ZM110.49 29.5598C108.333 29.5598 106.656 27.8293 106.656 25.725C106.656 23.6208 108.353 21.8687 110.512 21.8687C112.668 21.8687 114.345 23.6009 114.345 25.7035C114.345 27.8077 112.646 29.5598 110.49 29.5598Z" fill="#1F2937"/>
</svg>
