<svg width="145" height="61" viewBox="0 0 145 61" fill="none" xmlns="http://www.w3.org/2000/svg">
<path d="M44.0501 9.60925L57.1785 28.8605L52.7104 15.1254H56.9026L53.8136 6.07893L63.7978 6.35679C64.4213 6.71358 64.4972 6.87491 64.6252 7.56828C64.7463 8.46459 64.5206 8.87257 63.6323 9.44376L57.5094 9.49892L59.3849 15.2357H64.3494C65.6549 16.0117 65.8867 16.5419 65.6733 17.6076C65.4211 18.2457 65.139 18.5051 64.3494 18.766H56.2959L58.2817 24.3373H64.3494C66.4592 24.1299 67.3224 23.7484 68.5968 22.8479C69.9974 21.5267 70.6879 20.6934 71.3549 18.6557C71.7058 16.3593 71.6864 14.9996 70.8584 13.305C70.5119 12.5665 70.2408 12.195 69.6449 11.595C70.594 10.2016 70.8799 9.28307 70.8584 7.34764C70.7299 5.26206 70.3134 4.19859 68.7623 2.54862C67.6359 1.3754 66.7741 0.923713 64.7907 0.507655C62.8073 0.0915973 43.9949 0.397333 43.9949 0.397333L48.8491 9.60925H44.0501Z" fill="white"/>
<path d="M99.5922 4.05937L95.7091 8.66644C93.1091 6.45354 91.3708 5.82309 87.7125 5.9022C82.5872 7.40503 81.0153 9.53049 80.6045 15.6758C81.2248 19.375 82.4029 20.9053 85.8039 22.7838C88.453 23.5722 90.0622 23.4696 93.0765 22.6522V28.3452C90.9502 28.8632 89.6101 28.9318 87.0544 28.8059C83.0651 28.2126 81.0456 27.3457 77.9719 24.495C75.4184 21.7033 74.7256 19.6952 74.2204 15.6758C74.1652 10.5456 75.1377 8.51789 77.5112 5.44149C80.3132 2.40687 82.2525 1.19969 86.7253 0.406618C93.4252 -0.156584 95.6248 1.34709 99.4937 3.99203L99.5922 4.05937Z" fill="white"/>
<path d="M101.005 24.8905C98.881 26.5142 97.56 27.2358 95.0818 28.3458V18.1115H85.2095L88.1054 12.2539H101.005V24.8905Z" fill="#B8FD34"/>
<path d="M2.84638 44.7385V43.1156H4.68638C4.99876 43.1156 5.23114 43.0356 5.38353 42.8756C5.53591 42.7156 5.6121 42.4833 5.6121 42.1785C5.6121 41.8737 5.53591 41.6452 5.38353 41.4928C5.23114 41.3328 4.99876 41.2528 4.68638 41.2528H2.84638V39.9956H4.61781C5.20448 39.9956 5.73019 40.068 6.19495 40.2128C6.65972 40.3499 7.02543 40.5785 7.2921 40.8985C7.55876 41.2185 7.6921 41.6452 7.6921 42.1785V42.3385C7.6921 42.8414 7.574 43.2718 7.33781 43.6299C7.10162 43.988 6.75495 44.2623 6.29781 44.4528C5.84067 44.6433 5.28067 44.7385 4.61781 44.7385H2.84638ZM1.01781 44.7385V36.2585H3.07495V44.7385H1.01781ZM2.84638 40.9328V39.6756H4.37781C4.69019 39.6756 4.91495 39.5994 5.0521 39.4471C5.19686 39.2871 5.26924 39.0661 5.26924 38.7842C5.26924 38.4947 5.19686 38.2737 5.0521 38.1214C4.91495 37.9613 4.69019 37.8813 4.37781 37.8813H2.84638V36.2585H4.28638C5.26162 36.2585 6.01591 36.4642 6.54924 36.8756C7.08257 37.2794 7.34924 37.8585 7.34924 38.6128V38.7842C7.34924 39.3099 7.2121 39.7328 6.93781 40.0528C6.67114 40.3652 6.30543 40.5899 5.84067 40.7271C5.38353 40.8642 4.86543 40.9328 4.28638 40.9328H2.84638ZM12.725 44.8985C11.925 44.8985 11.2469 44.7499 10.6908 44.4528C10.1422 44.1556 9.72314 43.7366 9.43361 43.1956C9.14409 42.6471 8.99933 41.9994 8.99933 41.2528V36.3271H11.125V41.2985C11.125 41.6261 11.186 41.9118 11.3079 42.1556C11.4374 42.3994 11.6203 42.5861 11.8565 42.7156C12.0927 42.8452 12.3822 42.9099 12.725 42.9099C13.0679 42.9099 13.3574 42.8452 13.5936 42.7156C13.8298 42.5861 14.0089 42.4033 14.1308 42.1671C14.2527 41.9233 14.3136 41.6337 14.3136 41.2985V36.3271H16.4393V41.2528C16.4393 41.9994 16.2946 42.6471 16.005 43.1956C15.7231 43.7366 15.3041 44.1556 14.7479 44.4528C14.1993 44.7499 13.525 44.8985 12.725 44.8985ZM22.102 44.8985C21.3477 44.8985 20.7001 44.769 20.1592 44.5099C19.6182 44.2433 19.1725 43.8966 18.822 43.4699C18.4715 43.0356 18.2125 42.5671 18.0449 42.0642C17.8772 41.5614 17.7934 41.0737 17.7934 40.6014V40.3499C17.7934 39.8242 17.8772 39.3099 18.0449 38.8071C18.2201 38.2966 18.483 37.8356 18.8334 37.4242C19.1915 37.0128 19.6372 36.6852 20.1706 36.4413C20.7039 36.1975 21.3287 36.0756 22.0449 36.0756C22.8068 36.0756 23.4811 36.2204 24.0677 36.5099C24.662 36.7918 25.1382 37.1918 25.4963 37.7099C25.8544 38.2204 26.0639 38.8147 26.1249 39.4928H23.9992C23.9458 39.2033 23.8315 38.9518 23.6563 38.7385C23.4811 38.5252 23.2563 38.3613 22.982 38.2471C22.7077 38.1252 22.3953 38.0642 22.0449 38.0642C21.7172 38.0642 21.4201 38.1214 21.1534 38.2356C20.8944 38.3499 20.6734 38.5137 20.4906 38.7271C20.3153 38.9328 20.1782 39.1842 20.0792 39.4814C19.9877 39.7785 19.942 40.1137 19.942 40.4871C19.942 40.8604 19.9877 41.1956 20.0792 41.4928C20.1782 41.7899 20.3192 42.0452 20.502 42.2585C20.6925 42.4718 20.9211 42.6356 21.1877 42.7499C21.4544 42.8566 21.7592 42.9099 22.102 42.9099C22.6353 42.9099 23.0849 42.7804 23.4506 42.5214C23.8239 42.2623 24.0487 41.9156 24.1249 41.4814H26.2506C26.182 42.1061 25.9725 42.6775 25.622 43.1956C25.2715 43.7137 24.7992 44.129 24.2049 44.4414C23.6106 44.7461 22.9096 44.8985 22.102 44.8985ZM33.1507 44.6699L30.4421 40.7728H29.3107L32.6821 36.3271H35.1278L32.1107 40.3042V39.4928L35.7107 44.6699H33.1507ZM27.5964 44.6699V36.3271H29.7221V44.6699H27.5964ZM36.7089 44.6699V36.3271H38.766V44.6699H36.7089ZM38.5375 44.6699V42.9328H42.0575V44.6699H38.5375ZM38.5375 41.2985V39.5614H41.8175V41.2985H38.5375ZM38.5375 38.0642V36.3271H41.9889V38.0642H38.5375ZM45.2666 41.5385L42.9008 36.3271H45.0723L46.6608 40.0413L46.3637 39.9385H47.1866L46.8666 40.0413L48.2723 36.3271H50.3294L48.1694 41.5385H45.2666ZM45.678 44.6699V41.2642H47.758V44.6699H45.678ZM51.4517 44.6699V36.3271H53.5089V44.6699H51.4517ZM53.2803 44.6699V42.9328H56.8003V44.6699H53.2803ZM53.2803 41.2985V39.5614H56.5603V41.2985H53.2803ZM53.2803 38.0642V36.3271H56.7317V38.0642H53.2803ZM65.0392 44.8985C64.2544 44.8985 63.5801 44.769 63.0163 44.5099C62.4525 44.2433 61.9915 43.8966 61.6334 43.4699C61.2753 43.0433 61.0125 42.5785 60.8449 42.0756C60.6772 41.5728 60.5934 41.0814 60.5934 40.6014V40.3499C60.5934 39.8318 60.6811 39.3214 60.8563 38.8185C61.0315 38.308 61.2944 37.8471 61.6449 37.4356C62.003 37.0242 62.4487 36.6966 62.982 36.4528C63.5153 36.2013 64.1401 36.0756 64.8563 36.0756C65.6258 36.0756 66.3039 36.2166 66.8906 36.4985C67.4849 36.7804 67.9611 37.1728 68.3192 37.6756C68.6772 38.1709 68.8868 38.7461 68.9477 39.4014H66.822C66.7763 39.1499 66.6658 38.9252 66.4906 38.7271C66.3153 38.5213 66.0868 38.3613 65.8049 38.2471C65.5306 38.1252 65.2144 38.0642 64.8563 38.0642C64.5134 38.0642 64.2087 38.1252 63.942 38.2471C63.683 38.3613 63.462 38.529 63.2792 38.7499C63.1039 38.9633 62.9706 39.2185 62.8792 39.5156C62.7877 39.8128 62.742 40.1366 62.742 40.4871C62.742 40.8375 62.7915 41.1652 62.8906 41.4699C62.9896 41.7671 63.1344 42.0299 63.3249 42.2585C63.5153 42.4794 63.7553 42.6509 64.0449 42.7728C64.3344 42.8947 64.6658 42.9556 65.0392 42.9556C65.5115 42.9556 65.9192 42.8566 66.262 42.6585C66.6049 42.4604 66.8449 42.1975 66.982 41.8699L66.822 43.1271V41.3099H68.7649V43.0242C68.4144 43.6261 67.9153 44.0909 67.2677 44.4185C66.6277 44.7385 65.8849 44.8985 65.0392 44.8985ZM64.8106 41.7214V40.2356H69.4506V41.7214H64.8106ZM70.7535 44.6699V36.3271H72.8107V44.6699H70.7535ZM72.5821 44.6699V42.9328H76.1021V44.6699H72.5821ZM72.5821 41.2985V39.5614H75.8621V41.2985H72.5821ZM72.5821 38.0642V36.3271H76.0335V38.0642H72.5821ZM77.7455 44.6699V36.3271H81.2312L84.0083 42.9785H84.4083L84.1798 43.1842V36.3271H86.1683V44.6699H82.6598L79.8826 38.0185H79.4826L79.7112 37.8128V44.6699H77.7455ZM88.0857 44.6699V36.3271H90.1428V44.6699H88.0857ZM89.9142 44.6699V42.9328H93.4342V44.6699H89.9142ZM89.9142 41.2985V39.5614H93.1942V41.2985H89.9142ZM89.9142 38.0642V36.3271H93.3657V38.0642H89.9142ZM95.0776 44.6699V36.2585H97.2033V44.6699H95.0776ZM100.106 44.6699L97.7633 41.1271H100.072L102.552 44.6699H100.106ZM96.6662 42.1099V40.4756H98.6662C98.9176 40.4756 99.1348 40.4261 99.3176 40.3271C99.5005 40.228 99.6414 40.0871 99.7405 39.9042C99.8472 39.7214 99.9005 39.508 99.9005 39.2642C99.9005 39.0128 99.8472 38.7956 99.7405 38.6128C99.6414 38.4299 99.5005 38.289 99.3176 38.1899C99.1348 38.0909 98.9176 38.0413 98.6662 38.0413H96.6662V36.2585H98.5405C99.2643 36.2585 99.8891 36.369 100.415 36.5899C100.94 36.8033 101.344 37.1233 101.626 37.5499C101.908 37.969 102.049 38.4909 102.049 39.1156V39.2985C102.049 39.9233 101.904 40.4452 101.615 40.8642C101.333 41.2756 100.929 41.588 100.403 41.8014C99.8853 42.0071 99.2643 42.1099 98.5405 42.1099H96.6662ZM103.012 44.6699L105.686 36.3271H109.092L111.857 44.6699H109.663L107.515 37.8128L108.12 38.0413H106.612L107.229 37.8128L105.137 44.6699H103.012ZM105.195 42.7385L105.835 41.0014H109L109.64 42.7385H105.195ZM113.922 44.6699V37.9499H116.048V44.6699H113.922ZM111.636 38.1785V36.3271H118.334V38.1785H111.636ZM123.493 44.8985C122.731 44.8985 122.068 44.769 121.505 44.5099C120.941 44.2433 120.472 43.8966 120.099 43.4699C119.726 43.0356 119.447 42.5671 119.265 42.0642C119.082 41.5614 118.99 41.0737 118.99 40.6014V40.3499C118.99 39.8242 119.086 39.3099 119.276 38.8071C119.467 38.2966 119.752 37.8356 120.133 37.4242C120.514 37.0128 120.983 36.6852 121.539 36.4413C122.103 36.1975 122.754 36.0756 123.493 36.0756C124.225 36.0756 124.868 36.1975 125.425 36.4413C125.988 36.6852 126.461 37.0128 126.842 37.4242C127.223 37.8356 127.508 38.2966 127.699 38.8071C127.897 39.3099 127.996 39.8242 127.996 40.3499V40.6014C127.996 41.0737 127.901 41.5614 127.71 42.0642C127.527 42.5671 127.249 43.0356 126.876 43.4699C126.503 43.8966 126.034 44.2433 125.47 44.5099C124.907 44.769 124.247 44.8985 123.493 44.8985ZM123.493 42.9099C123.859 42.9099 124.187 42.849 124.476 42.7271C124.766 42.6052 125.013 42.4337 125.219 42.2128C125.425 41.9918 125.581 41.7366 125.687 41.4471C125.794 41.1499 125.847 40.8299 125.847 40.4871C125.847 40.1213 125.79 39.7899 125.676 39.4928C125.569 39.1956 125.413 38.9404 125.207 38.7271C125.002 38.5137 124.754 38.3499 124.465 38.2356C124.175 38.1214 123.851 38.0642 123.493 38.0642C123.127 38.0642 122.8 38.1214 122.51 38.2356C122.221 38.3499 121.973 38.5137 121.767 38.7271C121.562 38.9404 121.406 39.1956 121.299 39.4928C121.192 39.7899 121.139 40.1213 121.139 40.4871C121.139 40.8299 121.192 41.1499 121.299 41.4471C121.406 41.7366 121.562 41.9918 121.767 42.2128C121.973 42.4337 122.221 42.6052 122.51 42.7271C122.8 42.849 123.127 42.9099 123.493 42.9099ZM129.508 44.6699V36.2585H131.633V44.6699H129.508ZM134.536 44.6699L132.193 41.1271H134.502L136.982 44.6699H134.536ZM131.096 42.1099V40.4756H133.096C133.348 40.4756 133.565 40.4261 133.748 40.3271C133.93 40.228 134.071 40.0871 134.17 39.9042C134.277 39.7214 134.33 39.508 134.33 39.2642C134.33 39.0128 134.277 38.7956 134.17 38.6128C134.071 38.4299 133.93 38.289 133.748 38.1899C133.565 38.0909 133.348 38.0413 133.096 38.0413H131.096V36.2585H132.97C133.694 36.2585 134.319 36.369 134.845 36.5899C135.37 36.8033 135.774 37.1233 136.056 37.5499C136.338 37.969 136.479 38.4909 136.479 39.1156V39.2985C136.479 39.9233 136.334 40.4452 136.045 40.8642C135.763 41.2756 135.359 41.588 134.833 41.8014C134.315 42.0071 133.694 42.1099 132.97 42.1099H131.096ZM141.112 44.8985C140.334 44.8985 139.679 44.7766 139.146 44.5328C138.62 44.289 138.22 43.9575 137.946 43.5385C137.679 43.1118 137.546 42.6242 137.546 42.0756H139.603C139.603 42.2737 139.656 42.4566 139.763 42.6242C139.877 42.7842 140.045 42.9099 140.266 43.0014C140.487 43.0928 140.769 43.1385 141.112 43.1385C141.409 43.1385 141.66 43.1004 141.866 43.0242C142.079 42.948 142.239 42.8414 142.346 42.7042C142.46 42.5671 142.517 42.4033 142.517 42.2128C142.517 41.969 142.414 41.7823 142.209 41.6528C142.003 41.5156 141.656 41.428 141.169 41.3899L140.632 41.3442C139.771 41.268 139.085 40.9975 138.574 40.5328C138.064 40.068 137.809 39.4509 137.809 38.6813C137.809 38.1328 137.934 37.6642 138.186 37.2756C138.445 36.8871 138.807 36.5899 139.272 36.3842C139.736 36.1785 140.285 36.0756 140.917 36.0756C141.603 36.0756 142.182 36.1899 142.654 36.4185C143.134 36.6471 143.5 36.9709 143.752 37.3899C144.003 37.8014 144.129 38.2814 144.129 38.8299H142.072C142.072 38.6471 142.026 38.4794 141.934 38.3271C141.843 38.1747 141.71 38.0566 141.534 37.9728C141.367 37.8813 141.161 37.8356 140.917 37.8356C140.689 37.8356 140.494 37.8737 140.334 37.9499C140.182 38.0185 140.064 38.1175 139.98 38.2471C139.904 38.3766 139.866 38.5213 139.866 38.6813C139.866 38.8947 139.938 39.0775 140.083 39.2299C140.228 39.3823 140.479 39.4737 140.837 39.5042L141.374 39.5499C141.999 39.6033 142.552 39.7404 143.032 39.9613C143.512 40.1747 143.889 40.468 144.163 40.8414C144.437 41.2147 144.574 41.6718 144.574 42.2128C144.574 42.7537 144.433 43.2261 144.152 43.6299C143.877 44.0337 143.481 44.3461 142.963 44.5671C142.453 44.788 141.835 44.8985 141.112 44.8985Z" fill="white"/>
<path d="M18.7783 55.0111V54.074H19.8602C20.0786 54.074 20.2615 54.0308 20.4088 53.9444C20.5612 53.8581 20.6755 53.7387 20.7517 53.5863C20.8329 53.434 20.8736 53.2587 20.8736 53.0606C20.8736 52.8625 20.8329 52.6873 20.7517 52.5349C20.6755 52.3825 20.5612 52.2657 20.4088 52.1844C20.2615 52.0981 20.0786 52.0549 19.8602 52.0549H18.7783V51.1178H19.7688C20.2361 51.1178 20.6323 51.194 20.9574 51.3463C21.2875 51.4987 21.539 51.7171 21.7117 52.0016C21.8844 52.2809 21.9707 52.6136 21.9707 52.9997V53.1216C21.9707 53.5076 21.8844 53.8429 21.7117 54.1273C21.539 54.4067 21.2875 54.6251 20.9574 54.7825C20.6323 54.9349 20.2361 55.0111 19.7688 55.0111H18.7783ZM17.8488 56.7178V51.1178H18.9307V56.7178H17.8488ZM26.0865 56.8625C25.5837 56.8625 25.1469 56.7736 24.7761 56.5959C24.4104 56.4181 24.1056 56.187 23.8618 55.9025C23.6231 55.613 23.4427 55.3032 23.3208 54.973C23.204 54.6378 23.1456 54.3152 23.1456 54.0054V53.8378C23.1456 53.4975 23.2065 53.1597 23.3285 52.8244C23.4504 52.4841 23.6332 52.1768 23.877 51.9025C24.1259 51.6282 24.4332 51.4098 24.7989 51.2473C25.1646 51.0797 25.5938 50.9959 26.0865 50.9959C26.5742 50.9959 27.0008 51.0797 27.3665 51.2473C27.7323 51.4098 28.037 51.6282 28.2808 51.9025C28.5297 52.1768 28.7151 52.4841 28.837 52.8244C28.9589 53.1597 29.0199 53.4975 29.0199 53.8378V54.0054C29.0199 54.3152 28.9589 54.6378 28.837 54.973C28.7202 55.3032 28.5399 55.613 28.2961 55.9025C28.0573 56.187 27.7526 56.4181 27.3818 56.5959C27.0161 56.7736 26.5843 56.8625 26.0865 56.8625ZM26.0865 55.8568C26.371 55.8568 26.625 55.806 26.8485 55.7044C27.077 55.6029 27.27 55.4632 27.4275 55.2854C27.59 55.1025 27.7119 54.8968 27.7932 54.6682C27.8796 54.4346 27.9227 54.1882 27.9227 53.9292C27.9227 53.6498 27.8796 53.3933 27.7932 53.1597C27.7119 52.926 27.59 52.7229 27.4275 52.5502C27.27 52.3775 27.077 52.2429 26.8485 52.1463C26.6199 52.0498 26.3659 52.0016 26.0865 52.0016C25.8021 52.0016 25.5456 52.0498 25.317 52.1463C25.0885 52.2429 24.8929 52.3775 24.7304 52.5502C24.5729 52.7229 24.451 52.926 24.3646 53.1597C24.2834 53.3933 24.2427 53.6498 24.2427 53.9292C24.2427 54.1882 24.2834 54.4346 24.3646 54.6682C24.451 54.8968 24.5729 55.1025 24.7304 55.2854C24.8929 55.4632 25.0885 55.6029 25.317 55.7044C25.5456 55.806 25.8021 55.8568 26.0865 55.8568ZM31.4926 56.7178L30.0754 51.1559H31.1954L32.3459 55.994L32.0487 55.8187H32.8107L32.4754 55.994L33.3821 51.3692H34.3116L33.184 56.7178H31.4926ZM34.8145 56.7178L33.5878 51.3692H34.5554L35.5992 55.994L35.2716 55.8187H36.0183L35.7288 55.994L36.7421 51.1559H37.8011L36.5364 56.7178H34.8145ZM39.2756 56.7178V51.1559H40.3346V56.7178H39.2756ZM40.1823 56.7178V55.8035H42.7042V56.7178H40.1823ZM40.1823 54.3482V53.434H42.5061V54.3482H40.1823ZM40.1823 52.0702V51.1559H42.6432V52.0702H40.1823ZM44.4238 56.7178V51.1178H45.5057V56.7178H44.4238ZM47.8219 56.7178L46.1152 54.2949H47.3267L49.0867 56.7178H47.8219ZM45.1857 54.8587V53.9825H46.6029C46.801 53.9825 46.9711 53.9419 47.1133 53.8606C47.2606 53.7794 47.3749 53.6651 47.4562 53.5178C47.5375 53.3705 47.5781 53.2029 47.5781 53.0149C47.5781 52.8219 47.5375 52.6517 47.4562 52.5044C47.3749 52.3571 47.2606 52.2429 47.1133 52.1616C46.9711 52.0803 46.801 52.0397 46.6029 52.0397H45.1857V51.1178H46.4886C46.9356 51.1178 47.3216 51.1838 47.6467 51.3159C47.9768 51.4479 48.2308 51.6486 48.4086 51.9178C48.5863 52.187 48.6752 52.5248 48.6752 52.9311V53.053C48.6752 53.4644 48.5838 53.8022 48.401 54.0663C48.2232 54.3305 47.9717 54.5286 47.6467 54.6606C47.3216 54.7927 46.9356 54.8587 46.4886 54.8587H45.1857ZM50.5322 56.7178V51.1559H51.6141V56.7178H50.5322ZM53.6116 56.7178V51.1559H55.3868L57.7259 55.8187H57.9773L57.8249 55.9559V51.1559H58.8459V56.7178H57.063L54.724 52.0549H54.4649L54.6173 51.9178V56.7178H53.6116ZM63.4187 56.8625C62.9413 56.8625 62.5197 56.7838 62.154 56.6263C61.7934 56.4638 61.4886 56.2479 61.2397 55.9787C60.9959 55.7044 60.8105 55.3971 60.6835 55.0568C60.5616 54.7114 60.5007 54.3533 60.5007 53.9825V53.8149C60.5007 53.4644 60.5616 53.1216 60.6835 52.7863C60.8054 52.4511 60.9832 52.1489 61.2168 51.8797C61.4556 51.6105 61.7476 51.3971 62.093 51.2397C62.4435 51.0771 62.8448 50.9959 63.2968 50.9959C63.7845 50.9959 64.2162 51.0873 64.5921 51.2702C64.968 51.4479 65.2702 51.6994 65.4987 52.0244C65.7273 52.3444 65.8619 52.7178 65.9026 53.1444H64.813C64.7775 52.9057 64.6886 52.7025 64.5464 52.5349C64.4041 52.3622 64.2238 52.2302 64.0054 52.1387C63.7921 52.0473 63.5559 52.0016 63.2968 52.0016C63.0378 52.0016 62.8016 52.0473 62.5883 52.1387C62.38 52.2302 62.2022 52.3597 62.0549 52.5273C61.9076 52.6949 61.7934 52.8956 61.7121 53.1292C61.6359 53.3629 61.5978 53.6219 61.5978 53.9063C61.5978 54.2162 61.641 54.493 61.7273 54.7368C61.8137 54.9806 61.9356 55.1889 62.093 55.3616C62.2505 55.5292 62.441 55.6587 62.6645 55.7502C62.888 55.8365 63.1394 55.8797 63.4187 55.8797C63.7895 55.8797 64.1146 55.8035 64.394 55.6511C64.6734 55.4936 64.8765 55.2905 65.0035 55.0416L64.813 55.9178V54.4854H65.8111V55.7197C65.5724 56.0803 65.2473 56.3622 64.8359 56.5654C64.4245 56.7635 63.9521 56.8625 63.4187 56.8625ZM63.2435 54.6987V53.8911H66.2759V54.6987H63.2435ZM72.6443 56.8625C72.1414 56.8625 71.7046 56.7736 71.3338 56.5959C70.9681 56.4181 70.6633 56.187 70.4195 55.9025C70.1808 55.613 70.0005 55.3032 69.8786 54.973C69.7617 54.6378 69.7033 54.3152 69.7033 54.0054V53.8378C69.7033 53.4975 69.7643 53.1597 69.8862 52.8244C70.0081 52.4841 70.191 52.1768 70.4348 51.9025C70.6837 51.6282 70.991 51.4098 71.3567 51.2473C71.7224 51.0797 72.1516 50.9959 72.6443 50.9959C73.1319 50.9959 73.5586 51.0797 73.9243 51.2473C74.29 51.4098 74.5948 51.6282 74.8386 51.9025C75.0875 52.1768 75.2729 52.4841 75.3948 52.8244C75.5167 53.1597 75.5776 53.4975 75.5776 53.8378V54.0054C75.5776 54.3152 75.5167 54.6378 75.3948 54.973C75.2779 55.3032 75.0976 55.613 74.8538 55.9025C74.6151 56.187 74.3103 56.4181 73.9395 56.5959C73.5738 56.7736 73.1421 56.8625 72.6443 56.8625ZM72.6443 55.8568C72.9287 55.8568 73.1827 55.806 73.4062 55.7044C73.6348 55.6029 73.8278 55.4632 73.9852 55.2854C74.1478 55.1025 74.2697 54.8968 74.351 54.6682C74.4373 54.4346 74.4805 54.1882 74.4805 53.9292C74.4805 53.6498 74.4373 53.3933 74.351 53.1597C74.2697 52.926 74.1478 52.7229 73.9852 52.5502C73.8278 52.3775 73.6348 52.2429 73.4062 52.1463C73.1776 52.0498 72.9237 52.0016 72.6443 52.0016C72.3598 52.0016 72.1033 52.0498 71.8748 52.1463C71.6462 52.2429 71.4506 52.3775 71.2881 52.5502C71.1306 52.7229 71.0087 52.926 70.9224 53.1597C70.8411 53.3933 70.8005 53.6498 70.8005 53.9292C70.8005 54.1882 70.8411 54.4346 70.9224 54.6682C71.0087 54.8968 71.1306 55.1025 71.2881 55.2854C71.4506 55.4632 71.6462 55.6029 71.8748 55.7044C72.1033 55.806 72.3598 55.8568 72.6443 55.8568ZM80.8823 56.7178V51.1559H81.9642V56.7178H80.8823ZM77.2327 56.7178V51.1559H78.3146V56.7178H77.2327ZM78.1166 54.4092V53.4568H81.0804V54.4092H78.1166ZM83.9587 56.7178V51.1559H85.0406V56.7178H83.9587ZM89.6514 56.8625C89.1486 56.8625 88.7118 56.7736 88.341 56.5959C87.9752 56.4181 87.6705 56.187 87.4267 55.9025C87.1879 55.613 87.0076 55.3032 86.8857 54.973C86.7689 54.6378 86.7105 54.3152 86.7105 54.0054V53.8378C86.7105 53.4975 86.7714 53.1597 86.8933 52.8244C87.0152 52.4841 87.1981 52.1768 87.4419 51.9025C87.6908 51.6282 87.9981 51.4098 88.3638 51.2473C88.7295 51.0797 89.1587 50.9959 89.6514 50.9959C90.1391 50.9959 90.5657 51.0797 90.9314 51.2473C91.2971 51.4098 91.6019 51.6282 91.8457 51.9025C92.0946 52.1768 92.28 52.4841 92.4019 52.8244C92.5238 53.1597 92.5848 53.4975 92.5848 53.8378V54.0054C92.5848 54.3152 92.5238 54.6378 92.4019 54.973C92.2851 55.3032 92.1048 55.613 91.861 55.9025C91.6222 56.187 91.3175 56.4181 90.9467 56.5959C90.581 56.7736 90.1492 56.8625 89.6514 56.8625ZM89.6514 55.8568C89.9359 55.8568 90.1898 55.806 90.4133 55.7044C90.6419 55.6029 90.8349 55.4632 90.9924 55.2854C91.1549 55.1025 91.2768 54.8968 91.3581 54.6682C91.4445 54.4346 91.4876 54.1882 91.4876 53.9292C91.4876 53.6498 91.4445 53.3933 91.3581 53.1597C91.2768 52.926 91.1549 52.7229 90.9924 52.5502C90.8349 52.3775 90.6419 52.2429 90.4133 52.1463C90.1848 52.0498 89.9308 52.0016 89.6514 52.0016C89.367 52.0016 89.1105 52.0498 88.8819 52.1463C88.6533 52.2429 88.4578 52.3775 88.2952 52.5502C88.1378 52.7229 88.0159 52.926 87.9295 53.1597C87.8483 53.3933 87.8076 53.6498 87.8076 53.9292C87.8076 54.1882 87.8483 54.4346 87.9295 54.6682C88.0159 54.8968 88.1378 55.1025 88.2952 55.2854C88.4578 55.4632 88.6533 55.6029 88.8819 55.7044C89.1105 55.806 89.367 55.8568 89.6514 55.8568ZM100.143 56.7178V51.1559H101.225V56.7178H100.143ZM96.4938 56.7178V51.1559H97.5757V56.7178H96.4938ZM97.3776 54.4092V53.4568H100.341V54.4092H97.3776ZM105.818 56.8625C105.315 56.8625 104.878 56.7736 104.507 56.5959C104.142 56.4181 103.837 56.187 103.593 55.9025C103.354 55.613 103.174 55.3032 103.052 54.973C102.935 54.6378 102.877 54.3152 102.877 54.0054V53.8378C102.877 53.4975 102.938 53.1597 103.06 52.8244C103.182 52.4841 103.364 52.1768 103.608 51.9025C103.857 51.6282 104.164 51.4098 104.53 51.2473C104.896 51.0797 105.325 50.9959 105.818 50.9959C106.305 50.9959 106.732 51.0797 107.098 51.2473C107.464 51.4098 107.768 51.6282 108.012 51.9025C108.261 52.1768 108.446 52.4841 108.568 52.8244C108.69 53.1597 108.751 53.4975 108.751 53.8378V54.0054C108.751 54.3152 108.69 54.6378 108.568 54.973C108.451 55.3032 108.271 55.613 108.027 55.9025C107.789 56.187 107.484 56.4181 107.113 56.5959C106.747 56.7736 106.316 56.8625 105.818 56.8625ZM105.818 55.8568C106.102 55.8568 106.356 55.806 106.58 55.7044C106.808 55.6029 107.001 55.4632 107.159 55.2854C107.321 55.1025 107.443 54.8968 107.524 54.6682C107.611 54.4346 107.654 54.1882 107.654 53.9292C107.654 53.6498 107.611 53.3933 107.524 53.1597C107.443 52.926 107.321 52.7229 107.159 52.5502C107.001 52.3775 106.808 52.2429 106.58 52.1463C106.351 52.0498 106.097 52.0016 105.818 52.0016C105.533 52.0016 105.277 52.0498 105.048 52.1463C104.82 52.2429 104.624 52.3775 104.462 52.5502C104.304 52.7229 104.182 52.926 104.096 53.1597C104.015 53.3933 103.974 53.6498 103.974 53.9292C103.974 54.1882 104.015 54.4346 104.096 54.6682C104.182 54.8968 104.304 55.1025 104.462 55.2854C104.624 55.4632 104.82 55.6029 105.048 55.7044C105.277 55.806 105.533 55.8568 105.818 55.8568ZM110.406 56.7178V51.1559H111.884L113.279 54.4778H113.416L114.802 51.1559H116.303V56.7178H115.229V51.9711L115.366 51.9863L113.865 55.5825H112.761L111.252 51.9863L111.397 51.9711V56.7178H110.406ZM118.285 56.7178V51.1559H119.344V56.7178H118.285ZM119.192 56.7178V55.8035H121.714V56.7178H119.192ZM119.192 54.3482V53.434H121.516V54.3482H119.192ZM119.192 52.0702V51.1559H121.653V52.0702H119.192ZM125.286 56.8625C124.793 56.8625 124.377 56.7838 124.036 56.6263C123.701 56.4689 123.445 56.253 123.267 55.9787C123.089 55.6994 123 55.3844 123 55.034H124.059C124.059 55.1813 124.1 55.326 124.181 55.4682C124.262 55.6054 124.392 55.7171 124.57 55.8035C124.753 55.8898 124.991 55.933 125.286 55.933C125.55 55.933 125.771 55.8949 125.949 55.8187C126.126 55.7425 126.259 55.6435 126.345 55.5216C126.431 55.3946 126.474 55.2524 126.474 55.0949C126.474 54.8968 126.391 54.7394 126.223 54.6225C126.055 54.5006 125.796 54.4244 125.446 54.394L124.958 54.3559C124.425 54.3102 123.998 54.1451 123.678 53.8606C123.363 53.5711 123.206 53.1902 123.206 52.7178C123.206 52.3622 123.29 52.0575 123.457 51.8035C123.625 51.5444 123.859 51.3463 124.158 51.2092C124.463 51.067 124.819 50.9959 125.225 50.9959C125.646 50.9959 126.01 51.0695 126.314 51.2168C126.619 51.3641 126.855 51.5724 127.023 51.8416C127.191 52.1057 127.274 52.4181 127.274 52.7787H126.215C126.215 52.6263 126.177 52.4867 126.101 52.3597C126.03 52.2276 125.921 52.1235 125.773 52.0473C125.631 51.966 125.448 51.9254 125.225 51.9254C125.012 51.9254 124.834 51.9609 124.692 52.0321C124.549 52.1032 124.443 52.1997 124.372 52.3216C124.3 52.4435 124.265 52.5756 124.265 52.7178C124.265 52.8905 124.328 53.0429 124.455 53.1749C124.582 53.3019 124.783 53.3756 125.057 53.3959L125.545 53.4416C125.941 53.4721 126.289 53.5559 126.589 53.693C126.888 53.8302 127.119 54.0156 127.282 54.2492C127.45 54.4829 127.533 54.7648 127.533 55.0949C127.533 55.4454 127.442 55.7552 127.259 56.0244C127.076 56.2886 126.815 56.4943 126.474 56.6416C126.139 56.7889 125.743 56.8625 125.286 56.8625Z" fill="#8B8B8B"/>
<path d="M110.702 24.6444H109.82V25.8435H110.723C111.182 25.8435 111.426 25.5992 111.426 25.249C111.426 24.8436 111.15 24.6444 110.702 24.6444ZM111.457 26.473L112.452 27.9362H111.404L110.532 26.6191H109.82V27.9362H108.918V23.8473H110.735C111.71 23.8473 112.339 24.3488 112.339 25.1975C112.339 25.8635 111.977 26.2786 111.457 26.473ZM110.512 22.5833C108.566 22.5833 107.099 24.1246 107.099 26.0146C107.099 27.9063 108.557 29.4259 110.491 29.4259C112.432 29.4259 113.899 27.883 113.899 25.993C113.899 24.1014 112.444 22.5833 110.512 22.5833ZM110.491 29.8493C108.333 29.8493 106.656 28.1188 106.656 26.0146C106.656 23.9104 108.353 22.1582 110.512 22.1582C112.668 22.1582 114.345 23.8904 114.345 25.993C114.345 28.0972 112.646 29.8493 110.491 29.8493Z" fill="white"/>
</svg>
